<?xml version="1.0" standalone="no"?>
<!DOCTYPE svg PUBLIC "-//W3C//DTD SVG 20010904//EN"
 "http://www.w3.org/TR/2001/REC-SVG-20010904/DTD/svg10.dtd">
<svg version="1.0" xmlns="http://www.w3.org/2000/svg"
 width="1023.000000pt" height="819.000000pt" viewBox="0 0 1023.000000 819.000000"
 preserveAspectRatio="xMidYMid meet">
<metadata>
Created by potrace 1.16, written by Peter Selinger 2001-2019
</metadata>
<g transform="translate(0.000000,819.000000) scale(0.100000,-0.100000)"
fill="#000000" stroke="none">
<path d="M687 7373 c-13 -13 -7 -60 16 -119 25 -62 154 -287 169 -292 4 -2 8
-10 8 -18 0 -8 4 -14 10 -14 5 0 22 -19 38 -42 17 -24 67 -81 113 -127 46 -46
73 -78 59 -71 -75 39 -215 145 -288 218 -69 68 -88 83 -110 80 -35 -4 -41 -38
-13 -77 12 -16 21 -33 21 -39 0 -5 11 -22 25 -38 14 -16 29 -33 33 -39 83
-114 228 -258 335 -333 44 -31 76 -57 70 -59 -14 -5 -184 69 -222 96 -16 12
-32 21 -36 21 -8 0 -79 53 -83 63 -2 4 -10 7 -18 7 -8 0 -14 4 -14 9 0 12 -45
22 -64 15 -39 -15 -11 -75 69 -145 27 -24 56 -51 65 -59 8 -8 31 -26 50 -40
19 -13 37 -27 40 -30 3 -3 14 -11 25 -18 11 -6 40 -26 65 -42 25 -17 74 -45
109 -62 148 -74 -51 -21 -220 58 -103 49 -132 52 -137 16 -11 -73 394 -294
635 -347 47 -10 49 -21 5 -28 -40 -7 -152 -48 -152 -57 1 -40 135 -103 262
-123 43 -7 80 -16 81 -21 1 -5 -12 -14 -30 -20 -33 -12 -112 -66 -113 -78 0
-4 33 -23 73 -43 53 -26 95 -38 161 -47 70 -9 86 -13 73 -22 -73 -49 -98 -70
-107 -85 -8 -16 -1 -20 63 -36 40 -9 109 -20 155 -22 45 -3 82 -9 82 -12 0 -3
-19 -17 -41 -31 -43 -27 -93 -85 -85 -99 10 -16 162 -36 273 -36 l112 0 -36
-35 c-42 -41 -87 -109 -78 -118 11 -11 196 -14 267 -5 38 5 68 7 68 4 0 -3
-12 -19 -28 -36 -23 -26 -72 -114 -72 -131 0 -18 314 32 360 56 26 14 26 0 0
-30 -22 -25 -62 -127 -58 -145 3 -14 200 30 272 60 21 9 40 14 43 12 2 -3 -3
-20 -13 -39 -10 -18 -23 -57 -30 -85 -11 -47 -10 -53 4 -53 23 0 157 48 231
82 34 16 65 27 67 25 3 -2 -7 -27 -20 -54 -27 -54 -46 -163 -28 -163 15 0 223
88 239 101 21 18 22 8 7 -51 -16 -62 -18 -100 -5 -100 15 0 174 76 220 104 24
15 45 26 47 24 2 -3 -1 -20 -6 -39 -10 -33 -14 -129 -6 -129 6 0 125 68 154
88 51 36 50 37 44 -53 -3 -63 -2 -85 7 -85 14 0 133 68 141 80 3 5 11 10 19
12 11 2 13 -12 12 -66 l-2 -69 27 7 c31 8 125 67 173 108 18 16 36 27 39 23 3
-3 9 -40 13 -81 4 -42 10 -78 13 -82 10 -9 47 16 106 70 l55 50 7 -50 c9 -57
24 -102 35 -102 5 0 41 32 81 71 79 76 111 88 46 17 -103 -112 -174 -240 -174
-313 0 -33 1 -35 28 -29 15 4 34 13 43 21 15 13 16 8 11 -54 -4 -52 -10 -71
-26 -85 -20 -17 -22 -16 -37 1 -16 19 -21 19 -128 -5 -56 -12 -87 -48 -77 -88
5 -20 2 -22 -29 -18 -59 7 -85 -4 -85 -37 0 -33 25 -98 47 -123 20 -23 11 -34
-34 -43 -52 -10 -55 -12 -39 -43 7 -15 38 -99 67 -187 53 -156 54 -163 53
-265 -2 -107 -25 -255 -44 -274 -11 -11 -113 7 -169 30 l-34 14 6 113 c5 118
20 176 63 239 13 21 32 69 41 108 26 109 11 123 -172 169 -94 23 -451 93 -647
126 -200 33 -576 120 -713 164 -155 49 -348 124 -465 179 -101 47 -272 161
-380 252 -86 72 -107 85 -125 70 -8 -7 -15 -20 -15 -30 0 -10 46 -71 102 -136
56 -66 109 -128 117 -138 39 -48 264 -261 354 -335 l69 -56 -35 -3 c-40 -4
-218 29 -322 59 -105 30 -149 46 -272 101 -117 52 -163 58 -163 20 0 -15 103
-100 155 -128 11 -6 67 -39 125 -74 101 -61 342 -186 465 -242 156 -70 255
-113 315 -135 130 -48 357 -120 450 -143 145 -35 164 -42 174 -72 9 -24 -12
-99 -45 -160 -5 -10 -9 -36 -9 -57 0 -22 -5 -43 -10 -46 -5 -3 -10 -24 -10
-45 0 -60 52 -145 145 -236 65 -64 114 -97 245 -166 213 -113 485 -192 865
-253 283 -45 261 -39 275 -79 6 -19 17 -37 24 -39 8 -3 59 -35 115 -71 55 -36
103 -66 105 -66 21 0 265 -181 315 -234 19 -20 42 -36 50 -36 9 0 28 15 43 34
36 45 185 156 323 241 183 113 215 136 215 156 0 27 37 46 105 52 450 41 872
145 1148 282 176 88 277 171 358 294 46 69 49 78 49 137 0 36 -4 72 -9 82 -4
9 -15 31 -23 47 -8 17 -21 56 -28 89 -18 76 -4 106 55 119 172 36 513 148 702
231 45 20 84 36 87 36 13 0 319 150 418 206 330 183 451 275 392 298 -27 10
-40 7 -136 -38 -113 -54 -277 -109 -385 -131 -105 -21 -263 -35 -238 -21 24
14 270 244 356 333 142 147 269 301 269 326 0 32 -26 42 -54 20 -86 -68 -300
-224 -341 -249 -67 -41 -180 -94 -290 -137 -297 -114 -541 -177 -995 -257 -96
-17 -224 -41 -285 -55 -60 -13 -148 -31 -195 -40 -153 -31 -278 -64 -319 -85
-33 -16 -41 -26 -41 -48 0 -26 41 -158 84 -271 20 -51 40 -195 32 -227 -7 -26
-30 -36 -166 -69 -111 -26 -146 -30 -154 -17 -13 21 -37 216 -38 297 0 83 4
102 56 255 31 91 59 173 63 183 4 13 -1 20 -16 24 -21 5 -22 10 -16 55 8 59
-10 93 -55 103 -24 5 -30 12 -30 34 0 30 -32 65 -67 74 -12 3 -49 2 -83 -2
-41 -5 -59 -4 -57 3 2 6 13 12 25 14 26 4 26 3 7 107 -18 100 -14 113 8 25 13
-53 28 -76 57 -84 24 -7 34 -6 41 5 13 21 11 80 -6 134 -15 53 -12 75 5 31 5
-15 10 -31 10 -36 0 -8 53 -30 73 -30 18 0 -1 93 -33 164 -26 59 -30 77 -24
115 4 25 8 76 9 114 2 69 10 92 21 63 3 -9 12 -16 20 -16 8 0 14 -5 14 -10 0
-6 8 -14 18 -17 9 -4 31 -17 48 -30 17 -13 34 -23 37 -23 3 0 23 -11 43 -25
20 -14 41 -25 46 -25 6 0 8 31 6 70 -2 39 -2 70 0 70 7 0 67 -33 72 -40 10
-14 98 -58 104 -53 10 10 7 110 -4 139 -6 15 -9 29 -6 31 2 2 28 -12 59 -31
88 -56 144 -86 151 -79 9 9 7 84 -3 121 -5 17 -8 32 -6 32 2 0 45 -21 96 -46
79 -39 161 -74 175 -74 9 0 3 61 -11 105 -8 27 -13 51 -11 53 3 2 15 -3 28
-11 31 -20 212 -97 228 -97 21 0 5 89 -29 164 l-30 66 67 -34 c64 -32 218 -86
246 -86 18 0 5 62 -28 130 -26 54 -23 58 31 35 40 -17 126 -41 216 -60 49 -11
57 -10 57 2 0 20 -40 113 -64 147 l-20 29 25 -7 c60 -18 205 -45 273 -51 71
-7 76 -6 76 12 0 22 -48 101 -79 130 -21 20 -21 20 148 19 93 -1 173 2 177 6
4 5 0 16 -9 26 -10 10 -17 23 -17 30 0 6 -22 30 -49 54 l-50 43 117 0 c113 0
268 20 277 35 8 12 -54 84 -91 104 -19 11 -34 24 -34 28 0 4 27 8 59 8 52 0
168 19 224 36 36 11 7 51 -70 96 -19 11 -33 22 -31 23 2 2 41 9 88 15 80 11
161 39 203 72 29 22 11 43 -66 82 -40 20 -70 36 -67 37 3 0 50 9 105 18 106
19 198 57 235 96 l22 23 -32 17 c-17 9 -64 25 -103 35 -40 10 -65 20 -57 23 8
3 71 23 140 45 254 81 550 250 538 308 -8 40 -34 39 -125 -4 -103 -48 -179
-78 -231 -91 -20 -5 -48 -13 -62 -16 -25 -7 -25 -6 -3 7 12 7 46 26 75 42 29
16 79 46 111 67 32 22 62 39 67 39 5 0 10 3 12 8 2 4 28 27 58 52 163 133 187
162 176 206 -10 40 -40 31 -131 -37 -86 -64 -316 -171 -332 -155 -4 3 0 6 8 6
13 0 47 25 159 118 55 46 137 129 199 202 25 30 53 63 63 73 29 33 78 134 78
161 0 22 -4 26 -27 26 -27 -1 -63 -20 -63 -34 0 -7 -100 -107 -137 -137 -25
-20 -125 -87 -177 -119 -38 -23 -38 -23 -27 -2 7 12 17 22 24 22 7 0 23 16 37
35 14 19 31 35 38 35 6 0 12 4 12 9 0 6 10 21 23 34 52 58 77 87 77 93 0 3 13
23 29 43 29 36 140 215 142 229 1 4 9 23 19 42 38 74 35 140 -6 140 -7 0 -32
-26 -56 -57 -55 -76 -374 -393 -395 -393 -2 0 -18 -13 -36 -29 -37 -34 -125
-101 -132 -101 -2 0 -23 -13 -47 -29 -150 -99 -558 -286 -558 -255 0 10 -7 13
-22 9 -13 -3 -50 -12 -83 -19 -33 -7 -114 -30 -180 -50 -271 -83 -475 -138
-615 -166 -25 -5 -144 -32 -265 -60 -121 -27 -229 -50 -241 -50 -13 0 -24 8
-27 20 -6 23 -37 26 -70 8 -39 -21 -360 -128 -384 -128 -13 0 -23 6 -23 15 0
7 -8 18 -17 23 -13 8 -30 0 -72 -31 -30 -22 -93 -60 -140 -85 -118 -60 -178
-99 -231 -146 -53 -47 -130 -143 -130 -161 0 -7 -7 -18 -15 -25 -8 -7 -24 -31
-35 -54 -33 -66 -47 -89 -64 -98 -9 -5 -16 -17 -16 -28 0 -25 -122 -150 -147
-150 -11 0 -32 -9 -46 -20 -40 -32 -161 -69 -276 -85 -230 -33 -402 -10 -603
79 -62 28 -191 146 -218 201 -8 17 -22 41 -31 55 -9 14 -40 66 -69 115 -86
147 -154 207 -353 310 -54 28 -122 69 -153 92 -58 43 -78 46 -87 12 -3 -10
-13 -19 -24 -19 -10 0 -97 28 -193 61 -264 90 -250 87 -265 65 -8 -10 -11 -24
-9 -31 6 -14 -32 -8 -226 35 -52 12 -126 28 -165 36 -38 8 -92 21 -120 29 -27
7 -104 25 -170 40 -114 26 -261 66 -545 150 -68 20 -129 39 -134 43 -6 3 -42
6 -81 7 -57 1 -90 9 -166 40 -143 58 -416 197 -464 237 -5 5 -41 32 -80 60
-38 28 -88 67 -111 87 -152 135 -186 166 -244 226 -36 38 -75 78 -87 90 -13
12 -23 25 -23 29 0 7 -25 39 -57 73 -22 23 -44 29 -56 16z m240 -274 c211
-207 338 -306 528 -413 55 -31 97 -56 93 -56 -4 0 -33 7 -65 15 -146 38 -152
-2 -18 -114 68 -56 -174 72 -264 140 -164 124 -318 311 -419 508 -78 152 -86
182 -29 106 25 -33 103 -117 174 -186z m8807 199 c-48 -141 -198 -362 -344
-508 -115 -115 -195 -173 -340 -245 l-95 -47 68 62 c95 87 88 113 -24 91 -34
-7 -68 -15 -78 -18 -9 -3 36 25 99 62 127 75 220 141 331 236 121 103 304 286
350 350 24 32 44 59 46 59 1 0 -5 -19 -13 -42z m-8764 -570 c47 -31 150 -92
230 -136 132 -72 197 -101 419 -187 131 -52 55 -39 -113 19 -170 58 -206 66
-206 42 0 -17 63 -74 135 -122 30 -20 55 -38 55 -40 0 -5 -151 56 -207 84
-105 54 -230 152 -350 276 -101 103 -223 260 -223 285 0 4 39 -31 88 -78 48
-48 125 -112 172 -143z m8725 134 c-80 -117 -293 -330 -408 -406 -78 -52 -221
-122 -287 -141 -16 -5 -2 9 35 37 67 50 125 105 125 119 0 19 -54 7 -210 -47
-170 -59 -243 -70 -100 -15 47 18 119 46 160 62 99 38 350 174 475 257 57 38
134 101 180 148 44 45 82 80 84 78 3 -2 -22 -44 -54 -92z m-8705 -423 c47 -24
168 -73 270 -110 102 -38 177 -68 167 -69 -51 -1 -22 -65 51 -111 59 -37 46
-37 -81 5 -130 43 -235 95 -370 185 -99 67 -267 212 -267 232 0 5 33 -14 73
-41 39 -27 110 -68 157 -91z m8674 90 c-101 -105 -306 -248 -450 -315 -68 -32
-188 -75 -249 -89 -28 -6 -26 -4 15 25 78 56 98 94 59 108 -16 6 -4 14 63 37
255 87 415 159 528 239 35 25 66 43 69 40 3 -2 -13 -23 -35 -45z m-7409 -123
c121 -36 279 -81 350 -100 l130 -35 -174 6 c-127 4 -172 3 -167 -5 10 -17 192
-117 268 -148 38 -15 66 -29 65 -31 -2 -1 -48 11 -102 28 -248 77 -481 205
-595 325 -27 27 -30 35 -15 31 11 -4 119 -36 240 -71z m6150 17 c-116 -109
-321 -220 -544 -293 -129 -42 -176 -49 -72 -10 68 25 248 123 271 146 14 15 1
16 -160 11 l-175 -6 180 49 c99 27 259 74 355 103 96 30 182 55 190 55 8 1
-12 -24 -45 -55z m-7473 -183 c123 -57 243 -94 440 -135 95 -19 187 -39 203
-44 29 -9 29 -9 5 -11 -14 -1 -34 -5 -45 -9 -18 -7 -15 -11 22 -29 23 -12 79
-33 125 -47 l83 -25 -85 5 c-185 13 -355 60 -549 151 -104 49 -272 152 -286
174 -9 15 -5 13 87 -30z m8668 20 c-64 -52 -155 -106 -265 -160 -189 -92 -367
-141 -555 -154 l-85 -6 79 24 c94 29 156 56 156 67 0 5 -12 11 -27 15 -16 3
-32 7 -37 8 -5 1 38 12 95 24 333 72 487 118 604 180 51 27 68 28 35 2z
m-7329 -75 c63 -14 161 -41 219 -60 58 -19 130 -41 160 -49 54 -15 53 -15 -80
-10 l-135 5 35 -20 c52 -30 211 -91 335 -128 124 -38 81 -36 -90 4 -135 32
-256 73 -355 123 -100 50 -246 160 -213 160 6 0 62 -11 124 -25z m6039 16 c0
-18 -115 -101 -200 -145 -105 -55 -222 -96 -365 -129 -154 -36 -223 -43 -115
-13 170 49 380 133 380 153 0 3 -57 3 -127 0 -126 -5 -127 -5 -73 9 30 8 102
30 160 49 90 30 288 80 328 84 6 1 12 -3 12 -8z m-4568 -117 c127 -39 159 -54
190 -83 21 -19 36 -36 35 -38 -2 -1 -28 4 -58 11 -30 8 -56 12 -58 10 -11 -11
29 -60 74 -91 l50 -35 -50 6 -49 6 33 -34 c18 -18 50 -42 72 -52 47 -23 50
-34 7 -34 l-31 0 24 -26 c13 -14 38 -31 54 -38 l30 -13 -40 -7 -40 -8 23 -19
c13 -10 39 -21 59 -25 21 -4 30 -10 23 -14 -18 -11 46 -56 105 -73 46 -13 47
-14 22 -21 -15 -3 -27 -11 -27 -16 0 -14 53 -39 101 -46 43 -7 43 -8 16 -17
-15 -5 -27 -12 -27 -16 0 -10 46 -31 68 -31 10 -1 3 -8 -17 -19 -32 -17 -33
-19 -15 -28 10 -6 37 -14 59 -18 36 -6 38 -8 18 -16 -13 -5 -23 -11 -23 -14 0
-11 69 -35 101 -35 l31 0 -23 -19 -24 -19 28 -7 c16 -4 54 -5 85 -2 51 5 54 4
33 -7 -24 -13 -24 -14 -3 -25 11 -6 37 -11 57 -11 20 0 34 -4 30 -9 -3 -5 3
-11 12 -13 10 -2 -6 -11 -37 -22 -30 -10 -75 -29 -99 -42 -48 -26 -62 -24 -43
6 7 11 12 21 12 24 0 2 -32 6 -70 8 -39 3 -74 8 -77 12 -4 3 4 17 16 30 l22
24 -68 12 c-64 11 -153 42 -153 54 0 3 17 14 37 24 l36 19 -39 7 c-21 4 -63
18 -93 32 -44 20 -51 27 -42 38 7 8 34 20 61 27 l50 13 -73 21 c-39 12 -85 28
-101 37 l-30 16 39 19 38 20 -39 7 c-40 8 -144 51 -144 60 0 3 14 13 31 22
l32 16 -57 23 c-31 13 -68 31 -83 40 l-26 18 24 13 c13 7 33 14 44 14 11 1 -8
9 -43 19 -73 21 -158 71 -155 92 1 8 -24 26 -60 44 -66 33 -79 49 -46 58 22 6
21 7 -12 49 -49 60 -63 86 -82 142 -10 27 -17 51 -17 52 0 1 31 -11 70 -27 38
-15 138 -49 222 -75z m3318 84 c0 -26 -60 -137 -94 -175 -37 -41 -37 -53 -2
-53 18 -1 17 -5 -13 -30 -19 -16 -50 -35 -68 -41 -20 -6 -33 -17 -33 -27 0
-24 -74 -68 -155 -91 -39 -11 -62 -20 -53 -20 9 -1 29 -6 45 -12 l28 -11 -30
-24 c-16 -13 -51 -31 -77 -41 -45 -16 -63 -33 -35 -33 6 0 20 -7 30 -15 18
-13 17 -14 -11 -29 -17 -9 -61 -24 -99 -35 -60 -17 -65 -20 -41 -26 15 -4 32
-13 38 -20 15 -18 -28 -40 -123 -64 l-72 -18 40 -7 c21 -4 53 -15 69 -23 29
-15 29 -16 11 -30 -21 -15 -136 -53 -164 -53 -9 -1 2 -10 23 -22 38 -19 39
-21 21 -35 -24 -16 -97 -39 -159 -48 l-46 -7 26 -20 c35 -28 20 -40 -65 -46
-69 -5 -70 -5 -56 -26 26 -36 18 -39 -65 -32 -74 6 -99 -1 -70 -19 37 -23 -33
-34 -98 -16 -36 11 -35 11 -22 -23 16 -43 -26 -33 -73 16 -36 38 -38 43 -21
47 10 2 30 8 44 13 l25 9 -23 18 c-22 16 -21 17 47 13 39 -2 79 -1 88 2 16 7
16 9 -5 24 -21 17 -21 17 26 14 58 -3 82 9 63 32 -12 14 -7 15 46 10 33 -4 68
-2 77 3 16 9 14 13 -14 37 l-32 27 40 -7 c48 -8 115 3 107 17 -4 5 -23 18 -43
28 l-36 18 52 -5 c87 -8 132 15 77 40 -32 14 -25 24 25 32 48 8 51 19 8 37
l-31 13 57 11 c31 6 64 19 73 28 15 15 14 17 -13 29 l-29 12 30 4 c88 10 133
37 84 49 -16 4 -17 8 -7 14 7 5 23 9 35 9 12 0 39 8 59 17 l36 18 -48 22 c-46
20 -47 22 -19 23 35 1 105 30 123 52 11 14 6 17 -40 23 l-52 7 60 22 c72 26
126 56 132 74 2 8 -13 12 -55 13 l-58 1 41 14 c49 17 124 79 124 101 0 13 -9
15 -52 9 -29 -3 -64 -9 -78 -13 l-25 -7 25 33 c22 29 46 40 215 95 105 34 199
67 210 74 26 15 45 15 45 0z m-2897 -224 c179 -94 219 -133 335 -328 142 -238
217 -309 395 -372 43 -15 74 -30 70 -34 -16 -15 -143 -51 -165 -47 -21 3 -20
5 12 20 42 19 40 20 -31 7 -30 -5 -69 -6 -89 -1 l-35 8 45 22 45 22 -102 -7
c-57 -4 -103 -4 -103 0 0 3 15 15 33 26 l32 20 -50 0 c-27 0 -61 3 -74 7 -23
6 -23 6 9 23 l33 17 -68 6 c-97 9 -101 21 -18 42 l48 12 -55 8 c-45 6 -100 23
-80 25 3 0 23 7 45 14 l40 14 -30 7 c-68 14 -105 26 -105 35 0 4 19 15 42 22
l43 15 -59 7 c-73 8 -146 26 -146 35 0 4 39 17 88 28 l87 20 -100 3 c-55 1
-111 5 -125 9 -24 7 -23 8 15 19 22 6 60 14 85 18 l45 8 -82 12 c-46 6 -97 17
-114 25 l-32 13 24 9 c13 5 53 12 89 16 l65 6 -91 19 c-50 10 -108 26 -130 37
l-39 19 92 -3 c107 -4 104 3 -23 53 -43 17 -86 38 -94 47 -13 14 -11 15 25 10
22 -3 51 -9 65 -13 23 -6 23 -4 -11 32 -84 91 -106 147 -37 94 28 -21 110 -69
181 -106z m2397 70 c-12 -27 -29 -57 -38 -67 -15 -17 -13 -17 44 -11 54 6 58
5 44 -9 -8 -9 -50 -33 -94 -55 l-79 -38 49 1 c27 0 51 -4 54 -10 3 -5 -28 -27
-69 -47 -61 -32 -69 -38 -45 -38 16 0 36 -5 44 -10 12 -7 7 -12 -20 -24 -19
-8 -56 -17 -82 -21 -27 -4 -48 -11 -48 -15 0 -4 18 -12 40 -19 21 -6 42 -15
45 -20 6 -11 -102 -31 -176 -32 l-54 -1 84 -21 c102 -24 92 -36 -41 -44 l-92
-6 47 -14 c26 -7 47 -17 47 -22 0 -10 -78 -31 -117 -31 l-28 0 33 -21 c18 -12
31 -23 28 -26 -2 -2 -26 -8 -53 -12 l-48 -7 38 -19 c20 -10 37 -22 37 -26 0
-11 -76 -21 -112 -15 -30 5 -29 4 12 -15 51 -24 49 -26 -35 -37 l-60 -7 35
-22 34 -22 -28 -7 c-16 -4 -51 -2 -78 5 -27 6 -62 11 -76 11 -24 -1 -23 -3 18
-25 l45 -23 -28 -7 c-26 -7 -85 -3 -147 10 -14 2 -10 0 8 -7 17 -6 32 -15 32
-19 0 -14 -82 -10 -134 5 -44 13 -46 13 -34 -2 7 -9 24 -27 38 -40 l25 -23
-110 5 c-60 3 -137 13 -170 22 -66 18 -82 19 -170 8 -62 -7 -70 3 -13 16 29 7
27 8 -22 9 -30 1 -70 -3 -88 -8 -34 -10 -39 -5 -19 23 11 15 20 16 87 5 119
-18 352 4 485 47 173 56 270 142 389 345 143 241 162 259 385 378 74 39 148
83 165 97 38 33 43 21 16 -42z m-4082 -69 c93 -14 239 -48 248 -58 3 -3 -15
-2 -40 0 -25 3 -53 2 -63 -1 -16 -7 -15 -9 7 -22 66 -37 365 -113 515 -130
104 -12 47 -15 -76 -4 -288 26 -573 112 -699 210 -32 25 -23 25 108 5z m5612
-5 c-85 -66 -272 -138 -454 -175 -110 -22 -354 -50 -362 -42 -2 2 47 11 109
21 199 32 455 106 465 134 2 8 -14 12 -50 13 l-53 0 69 20 c71 20 217 46 271
48 l30 1 -25 -20z m-6220 -44 c103 -10 118 -13 82 -18 -24 -4 -54 -16 -66 -27
-18 -17 -36 -21 -92 -22 l-69 -2 85 -9 c47 -5 92 -16 100 -23 9 -8 31 -21 50
-30 33 -15 24 -15 -160 -11 -210 5 -306 20 -398 61 -30 14 -51 29 -47 35 10
17 111 41 203 49 124 12 171 11 312 -3z m7127 -11 c40 -8 82 -19 94 -25 l21
-12 -22 -15 c-37 -26 -128 -53 -228 -68 -117 -18 -425 -20 -377 -3 17 6 41 19
56 29 15 11 58 21 110 27 l84 9 -73 2 c-62 1 -77 4 -90 22 -11 12 -35 23 -62
27 -40 6 -33 8 65 19 126 13 317 8 422 -12z m-1077 -155 c-82 -64 -267 -128
-443 -154 -108 -16 -430 -20 -572 -7 -59 5 -41 8 115 15 203 8 287 17 454 43
l111 18 -110 6 c-60 4 -166 13 -235 20 l-125 13 174 13 c95 6 203 17 240 24
36 6 143 15 236 19 94 3 172 7 175 8 3 1 -6 -7 -20 -18z m-5022 -5 c48 -9 169
-21 267 -28 l180 -12 -160 -18 c-88 -9 -194 -18 -235 -18 -71 -1 -73 -2 -30
-10 155 -29 261 -40 470 -51 228 -12 232 -13 145 -21 -49 -4 -191 -6 -315 -4
-179 4 -245 9 -323 26 -126 28 -251 73 -318 116 l-54 34 142 1 c84 0 180 -6
231 -15z m-694 -5 c-6 -6 -62 -17 -124 -25 -128 -17 -185 -32 -202 -52 -28
-34 60 -61 207 -64 l70 -1 -55 -9 c-228 -33 -475 -12 -539 47 -11 10 -7 16 25
32 77 39 146 53 294 58 80 3 181 9 225 14 44 4 87 8 95 9 9 1 11 -2 4 -9z
m6186 -4 c47 -4 142 -8 211 -11 71 -3 149 -12 180 -21 54 -16 129 -50 129 -59
0 -10 -78 -43 -130 -55 -66 -16 -248 -19 -385 -6 l-100 10 118 8 c114 7 177
25 177 49 0 21 -89 48 -210 64 -69 9 -129 21 -135 27 -7 7 0 9 25 5 19 -3 73
-8 120 -11z m-6261 -197 c-53 -19 -99 -50 -99 -68 0 -19 33 -34 88 -40 l57 -7
-89 -8 c-95 -9 -199 -4 -285 15 -44 9 -50 13 -40 26 7 8 38 27 68 42 46 23 79
30 186 40 71 7 132 14 134 17 2 2 11 4 20 3 9 0 -9 -9 -40 -20z m1278 -7 c-56
-12 -137 -25 -180 -29 -43 -3 -76 -7 -74 -10 8 -7 226 -25 382 -32 l150 -6
-105 -15 c-59 -8 -175 -15 -265 -15 -164 1 -241 13 -340 55 l-40 17 57 29 57
29 230 0 229 0 -101 -23z m4063 -7 l55 -28 -40 -17 c-99 -42 -176 -54 -340
-55 -90 0 -206 7 -265 15 l-105 15 155 6 c160 7 369 25 377 32 2 3 -31 7 -74
10 -43 4 -124 17 -180 29 l-101 23 231 -1 232 -1 55 -28z m1000 11 c115 -13
197 -41 229 -79 10 -13 4 -17 -41 -27 -81 -17 -206 -24 -294 -14 l-79 8 58 7
c106 12 111 49 12 95 -59 28 -51 29 115 10z m-6217 -137 c-66 -42 -25 -77 92
-80 28 -1 75 -4 105 -8 l55 -6 -104 -28 c-57 -16 -139 -32 -182 -37 -73 -7
-238 2 -281 16 -19 6 -18 8 7 34 36 38 168 98 251 114 93 19 94 19 57 -5z
m6002 6 c87 -16 227 -80 263 -118 23 -24 23 -25 4 -31 -43 -14 -208 -23 -282
-15 -43 4 -122 19 -175 33 -53 14 -100 27 -103 27 -14 3 105 17 153 18 28 1
67 6 88 12 47 13 46 34 -2 66 -19 13 -31 23 -28 23 3 0 40 -7 82 -15z m-4740
-20 c33 -8 89 -15 125 -16 l65 -1 -45 -14 c-109 -35 -188 -47 -310 -47 -69 0
-135 4 -148 9 l-23 10 31 29 c29 28 37 30 133 36 56 3 104 6 107 7 3 1 32 -5
65 -13z m3607 5 c84 0 89 -1 124 -32 l36 -32 -24 -9 c-12 -5 -77 -10 -143 -10
-119 -1 -238 17 -323 48 l-37 14 70 1 c39 1 93 8 120 15 28 7 59 11 70 9 11
-2 59 -4 107 -4z m-4512 -100 c-112 -50 -155 -77 -155 -97 0 -13 9 -19 33 -21
30 -3 219 22 261 34 9 3 0 -4 -19 -15 -53 -31 -182 -79 -255 -96 -62 -15 -271
-22 -283 -11 -10 10 41 58 111 103 44 29 113 59 195 87 150 51 207 59 112 16z
m1022 6 l-33 -24 47 -7 c25 -3 80 -4 122 -1 l77 6 -90 -31 c-105 -36 -246 -55
-328 -45 l-57 7 36 45 c31 37 42 44 73 44 20 1 65 7 101 14 36 8 69 14 74 15
6 0 -5 -10 -22 -23z m3296 0 c88 -13 94 -15 126 -52 l34 -39 -37 -8 c-56 -13
-207 0 -301 27 -142 40 -147 46 -35 39 55 -3 111 -1 124 4 l24 9 -34 23 c-19
13 -25 20 -14 17 11 -3 62 -12 113 -20z m1011 -17 c152 -49 226 -87 289 -148
l47 -45 -50 -6 c-92 -9 -225 6 -325 39 -103 34 -236 95 -185 85 162 -32 279
-42 290 -24 12 20 -19 43 -120 91 -55 27 -94 48 -86 49 8 0 71 -18 140 -41z
m-4128 -70 l-34 -31 51 7 c28 4 84 15 124 25 40 11 74 18 75 16 7 -6 -196
-105 -246 -120 -61 -18 -148 -21 -171 -6 -13 8 -12 15 6 47 20 35 29 40 100
59 44 11 86 23 94 26 33 14 33 6 1 -23z m2924 -1 c70 -18 84 -24 103 -54 12
-19 22 -38 22 -44 0 -16 -48 -23 -119 -17 -54 5 -87 17 -189 68 -68 34 -121
63 -120 65 2 2 31 -4 63 -12 33 -9 91 -22 128 -29 l68 -13 -38 35 c-25 22 -31
32 -18 28 11 -3 56 -16 100 -27z m-3855 8 c0 -2 -47 -34 -104 -70 -57 -37
-106 -73 -109 -80 -15 -37 46 -46 152 -21 35 9 65 14 67 12 2 -2 -36 -23 -85
-46 -104 -49 -204 -78 -310 -87 l-74 -7 33 47 c46 64 120 118 211 154 42 17
107 46 145 66 76 38 74 38 74 32z m4939 -107 c51 -18 80 -38 138 -94 40 -38
73 -76 73 -83 0 -27 -191 3 -307 49 -75 29 -179 86 -138 75 100 -28 193 -33
202 -11 8 23 -21 50 -114 106 -111 67 -115 80 -6 26 48 -24 117 -55 152 -68z
m-2834 74 c-20 -50 -19 -53 16 -43 49 14 105 12 171 -6 73 -21 67 -30 -50 -78
-93 -38 -106 -46 -71 -46 58 -1 309 -66 309 -80 0 -4 -30 -13 -67 -20 -139
-24 -132 -19 -72 -44 30 -12 78 -36 108 -53 l53 -31 -38 -6 c-22 -3 -63 -8
-91 -12 -29 -3 -55 -9 -58 -13 -2 -4 24 -28 58 -53 34 -26 76 -61 92 -79 l30
-33 -35 23 c-49 31 -172 91 -187 91 -10 0 -9 -10 5 -37 11 -21 25 -63 32 -93
6 -30 14 -64 16 -75 4 -16 2 -15 -10 5 l-15 25 -1 -32 c0 -45 -16 -42 -23 5
-8 48 -37 145 -42 140 -3 -2 0 -21 6 -42 14 -49 5 -56 -29 -24 -64 60 -73 46
-11 -18 39 -40 69 -82 73 -99 7 -29 6 -28 -46 22 -47 45 -238 177 -245 169 -2
-2 12 -29 32 -61 34 -56 48 -97 22 -65 -15 19 -81 70 -91 70 -7 0 -2 -21 12
-59 3 -7 -18 3 -45 23 -28 20 -53 36 -56 36 -4 0 -4 -13 0 -30 3 -16 4 -30 2
-30 -2 0 -26 7 -53 15 -28 9 -90 15 -145 15 -109 1 -106 8 17 39 46 12 98 27
115 35 l32 13 -34 17 c-46 24 -181 47 -235 40 -64 -9 -119 -43 -132 -82 -10
-31 -11 -32 -26 -15 -28 33 -38 61 -38 111 0 40 7 60 41 113 52 82 54 83 70
67 8 -7 40 -29 72 -48 40 -24 65 -47 78 -72 13 -26 26 -38 40 -38 18 0 19 3 9
15 -17 20 -6 43 22 47 19 2 24 10 26 40 3 34 6 37 43 43 32 6 47 16 70 47 16
23 29 46 29 52 0 6 -10 -4 -21 -22 -27 -42 -67 -62 -123 -62 -37 0 -48 -5 -70
-30 l-25 -30 -37 25 c-20 14 -43 25 -50 25 -55 0 73 121 196 185 29 16 347
121 374 124 4 1 5 -7 1 -16z m-1012 -40 c-10 -16 -25 -34 -33 -41 -13 -11 -12
-12 5 -4 11 6 47 15 80 22 33 7 68 17 78 22 10 5 21 7 24 4 3 -3 -30 -28 -72
-55 -83 -54 -155 -81 -217 -81 -33 0 -38 3 -34 18 3 9 8 28 11 42 5 19 25 34
83 62 94 45 97 45 75 11z m2590 -13 c58 -27 77 -41 82 -60 3 -14 9 -34 12 -44
5 -18 1 -19 -58 -13 -44 4 -83 16 -133 42 -69 35 -163 105 -121 90 11 -4 52
-15 91 -25 39 -9 77 -20 85 -24 11 -6 10 -4 -1 6 -21 18 -54 71 -42 67 5 -2
43 -20 85 -39z m-3542 -44 c-7 -8 -39 -34 -70 -57 -70 -51 -87 -74 -70 -95 16
-19 78 -17 163 5 87 23 71 8 -59 -54 -77 -37 -226 -85 -265 -85 -22 0 42 97
103 158 74 73 243 182 198 128z m1202 -36 c-64 -56 -157 -106 -215 -116 -35
-6 -38 -4 -38 17 0 49 12 65 71 96 68 37 81 24 27 -28 l-33 -31 33 22 c29 19
184 87 205 89 5 1 -18 -22 -50 -49z m2066 9 c40 -15 82 -35 92 -45 11 -9 22
-15 25 -11 3 3 -6 13 -20 22 -14 10 -26 26 -26 36 0 16 6 15 59 -14 53 -29 61
-36 66 -70 4 -21 5 -41 2 -44 -12 -12 -110 21 -166 55 -66 41 -157 118 -126
107 11 -4 53 -20 94 -36z m1341 -99 c72 -72 121 -142 108 -155 -14 -14 -180
39 -286 91 -62 31 -112 57 -110 59 2 2 35 -5 73 -15 91 -24 153 -26 162 -4 9
24 -6 43 -78 97 -84 63 -87 78 -8 36 38 -20 95 -64 139 -109z m-3401 18 c-6
-23 -12 -45 -15 -50 -4 -5 2 -5 12 1 11 5 42 19 69 30 l50 21 -51 -49 c-63
-58 -143 -99 -155 -79 -11 16 -11 26 -3 67 5 22 21 43 52 67 25 19 46 34 47
34 2 0 -1 -19 -6 -42z m2085 -27 c11 -17 16 -87 8 -100 -15 -21 -87 16 -152
78 l-55 51 50 -21 c28 -12 58 -25 67 -30 15 -8 16 -5 9 14 -4 12 -11 35 -15
50 l-7 28 45 -30 c25 -17 47 -35 50 -40z m-446 27 c5 -7 17 -38 27 -70 9 -31
22 -61 30 -68 11 -9 15 -3 22 32 l9 43 23 -35 c18 -28 21 -43 15 -80 -3 -25
-10 -53 -16 -64 -9 -17 -13 -15 -48 19 -38 37 -92 142 -105 203 -6 27 -4 32
13 32 11 0 24 -6 30 -12z m103 -4 c7 -8 30 -24 50 -35 21 -10 45 -29 55 -41
11 -16 15 -17 11 -5 -4 9 -2 17 3 17 5 0 10 10 12 23 3 21 4 21 22 -6 20 -29
29 -118 13 -133 -20 -21 -131 78 -175 155 -22 40 -17 56 9 25z m1432 -119 c43
-53 83 -133 72 -143 -9 -9 -129 35 -215 79 -70 36 -192 120 -186 127 2 1 40
-13 85 -33 93 -41 157 -49 174 -23 9 14 6 24 -12 49 l-24 32 33 -19 c18 -11
51 -41 73 -69z m-4271 53 c-19 -19 -14 -56 8 -63 29 -9 75 2 159 41 41 19 76
32 79 30 7 -8 -121 -97 -188 -131 -76 -38 -199 -80 -207 -71 -4 3 4 29 18 58
24 53 124 166 136 154 4 -3 1 -12 -5 -18z m502 -69 c-61 -68 -285 -205 -381
-234 -33 -9 -30 23 7 99 35 70 75 126 65 90 -5 -21 6 -36 36 -47 9 -3 72 21
140 54 135 64 164 72 133 38z m3296 -25 c52 -25 108 -52 123 -60 20 -9 35 -10
54 -3 21 8 24 14 21 40 l-5 31 19 -23 c28 -37 88 -159 88 -181 0 -15 -5 -18
-22 -13 -50 15 -189 85 -244 123 -76 51 -163 131 -144 132 8 0 57 -21 110 -46z
m-3121 -50 c-70 -75 -328 -232 -337 -205 -6 17 18 82 44 123 28 43 62 67 60
41 -2 -23 53 -37 74 -19 27 25 145 86 164 86 18 0 18 -2 -5 -26z m2923 -14
c40 -22 89 -53 108 -68 29 -22 31 -22 16 -4 -19 22 -19 22 2 22 16 0 22 6 22
21 l0 20 28 -20 c30 -21 86 -130 80 -157 -7 -33 -247 106 -327 190 -47 49 -23
47 71 -4z m-2741 -37 c-17 -21 -53 -56 -81 -78 -54 -43 -168 -115 -182 -115
-10 0 -3 38 19 98 11 32 18 40 27 32 32 -26 82 -8 204 75 20 14 38 25 40 25 2
0 -11 -17 -27 -37z m2607 -62 c17 -11 32 -16 32 -11 0 4 9 6 20 3 11 -3 26 0
34 6 11 10 17 3 30 -35 9 -26 16 -58 16 -72 l0 -24 -57 32 c-73 41 -184 130
-213 170 l-22 31 64 -40 c34 -22 78 -49 96 -60z m-282 3 c110 -86 182 -108
177 -54 l-3 25 15 -25 c18 -31 40 -128 32 -136 -8 -8 -97 49 -168 108 -49 41
-128 128 -116 128 3 0 31 -21 63 -46z m-2148 -4 c-44 -56 -214 -190 -240 -190
-14 0 -9 44 13 108 21 62 35 85 23 37 -14 -56 57 -41 156 35 36 27 69 49 73
50 4 0 -7 -18 -25 -40z m1819 -99 l53 -42 24 26 25 26 7 -48 c9 -59 9 -101 1
-109 -17 -17 -166 138 -223 231 -18 30 -18 30 22 -6 21 -19 63 -55 91 -78z
m202 23 c20 -4 45 -14 55 -23 18 -15 19 -15 13 1 -3 9 -2 28 1 43 l8 27 36
-40 c25 -28 40 -57 49 -96 7 -31 10 -59 6 -62 -12 -13 -135 74 -212 149 -44
44 -60 63 -36 43 24 -20 60 -39 80 -42z m-1986 -22 c-6 -16 -5 -16 14 1 24 21
46 22 62 3 10 -12 0 -22 -51 -59 -129 -90 -128 -90 -128 -54 0 45 28 118 57
145 l28 27 12 -23 c7 -12 9 -30 6 -40z m1363 -386 c-69 -63 -68 -66 24 -146
l60 -52 0 54 c1 43 3 50 12 34 14 -26 24 -146 11 -146 -6 0 -54 42 -107 94
l-97 93 -82 -28 c-127 -44 -147 -35 -32 15 135 58 219 101 234 120 8 9 19 16
25 16 6 -1 -15 -25 -48 -54z m-531 -36 c32 -20 35 -20 60 -4 14 9 30 24 35 33
8 14 9 13 10 -6 0 -12 -11 -30 -25 -41 -14 -11 -25 -24 -25 -30 0 -5 20 -20
44 -33 25 -13 43 -25 41 -27 -2 -3 -34 12 -70 32 -75 41 -75 41 -75 22 0 -8
-26 -42 -57 -76 -47 -51 -58 -59 -66 -45 -4 9 -6 34 -2 56 8 47 -2 49 -41 8
-16 -17 -38 -35 -49 -41 -11 -6 7 18 40 54 33 35 63 62 68 60 4 -2 7 -24 7
-50 l0 -46 34 33 c18 18 39 43 46 56 11 21 10 28 -12 57 -31 42 -47 72 -18 36
11 -15 36 -36 55 -48z m-362 -216 c39 -21 35 -50 -9 -64 -22 -8 -39 -21 -45
-37 -12 -33 -11 -90 2 -116 l12 -22 -23 20 c-35 32 -69 98 -76 148 -6 40 -4
48 20 72 22 22 32 25 59 20 18 -4 44 -14 60 -21z m-227 -5 c43 -11 44 -13 44
-50 0 -35 -3 -39 -25 -39 -21 0 -25 -5 -25 -30 0 -17 7 -47 15 -67 8 -20 14
-38 12 -40 -8 -7 -127 128 -133 151 -9 38 20 76 64 85 2 1 23 -4 48 -10z m854
-23 c41 -13 108 -29 148 -36 l72 -13 0 -40 0 -39 -67 7 c-38 4 -104 18 -149
31 l-81 23 -62 -19 c-34 -10 -79 -20 -99 -22 -36 -3 -37 -2 -40 34 -3 36 -2
37 40 48 24 6 68 19 98 29 30 10 57 19 60 19 3 1 39 -9 80 -22z m622 -23 c46
-54 26 -137 -54 -217 -32 -32 -61 -56 -64 -54 -2 3 7 30 21 61 15 31 29 72 32
92 5 32 2 39 -37 74 l-42 39 28 10 c46 17 99 14 116 -5z m2324 -16 c1 -10 4
-54 5 -99 4 -92 9 -86 -129 -164 -42 -24 -72 -44 -67 -44 6 0 48 7 94 15 47 8
92 13 102 10 13 -4 19 -22 24 -78 4 -40 9 -79 10 -88 3 -12 -19 -27 -78 -54
-103 -47 -255 -108 -327 -130 -30 -10 -80 -26 -110 -37 -117 -42 -231 -68
-244 -55 -10 9 14 19 110 47 67 19 126 39 131 44 4 5 -1 6 -12 3 -48 -13 -215
-39 -227 -35 -13 5 29 20 160 58 41 12 72 23 70 26 -3 2 -54 -5 -114 -16 -123
-22 -137 -24 -130 -12 3 5 58 24 122 42 65 19 112 36 106 38 -9 3 -108 -13
-214 -34 -17 -3 -28 -1 -28 5 0 6 3 10 8 9 4 0 14 2 22 5 8 3 62 20 118 37 57
17 102 33 100 35 -1 2 -52 -6 -113 -16 -60 -10 -117 -19 -124 -19 -32 0 7 19
69 35 108 27 172 47 167 51 -2 2 -52 -5 -112 -16 -60 -11 -117 -20 -128 -20
-44 0 1 20 114 51 67 18 118 34 113 36 -5 2 -59 -6 -119 -17 -60 -10 -111 -17
-114 -14 -10 10 17 21 99 43 47 13 92 27 100 32 12 8 11 9 -5 5 -11 -2 -54
-10 -95 -16 -41 -6 -83 -14 -92 -16 -11 -3 -18 0 -18 8 0 8 34 22 93 38 97 26
98 39 1 21 -116 -22 -136 -9 -36 24 29 9 52 19 50 21 -2 2 -29 0 -59 -5 -29
-5 -57 -7 -62 -4 -15 9 5 23 49 34 83 21 53 32 -38 14 -22 -4 -24 11 -2 19 8
3 81 22 162 41 156 38 411 111 502 144 65 23 92 23 96 -2z m-2136 0 c58 -29
26 -126 -79 -237 l-61 -65 25 55 c43 96 45 162 5 175 -15 5 -20 15 -20 39 0
18 3 36 7 39 11 12 97 7 123 -6z m-3661 -22 c4 2 55 -9 112 -26 122 -35 503
-130 602 -150 52 -10 64 -15 48 -21 -11 -4 -55 -1 -97 7 -41 8 -85 15 -97 14
-20 -1 -20 -1 3 -9 14 -5 62 -19 108 -31 121 -32 90 -44 -48 -19 -62 11 -115
18 -117 16 -5 -5 63 -25 170 -52 37 -9 67 -20 67 -25 0 -12 9 -13 -146 16 -74
14 -140 25 -146 25 -27 0 7 -11 137 -45 140 -37 180 -55 154 -70 -7 -5 -10 -4
-6 2 6 10 -309 71 -318 61 -6 -5 275 -78 302 -78 17 0 20 -7 19 -39 -2 -45
-10 -58 -28 -44 -15 12 -304 66 -321 60 -17 -5 294 -82 321 -79 12 1 22 -2 22
-8 0 -5 -4 -10 -10 -10 -5 0 -10 -5 -10 -11 0 -5 5 -7 12 -3 8 5 9 -2 4 -27
-4 -19 -9 -61 -11 -94 -1 -32 -8 -61 -14 -63 -6 -2 -9 -8 -5 -13 10 -17 -24
-21 -83 -9 -157 31 -526 154 -641 214 -30 16 -31 17 -25 73 3 32 6 77 7 101 0
23 5 42 9 42 5 0 5 5 2 11 -5 7 8 9 41 4 53 -7 50 1 -15 37 -26 14 -29 20 -24
50 4 18 7 72 7 120 1 48 3 83 4 78 2 -6 7 -8 11 -5z m2863 -80 c53 -15 136
-28 193 -32 l100 -6 83 -54 c45 -30 82 -57 82 -60 0 -2 -5 -13 -10 -24 -12
-22 -3 -24 35 -7 21 9 33 8 75 -12 28 -13 50 -30 50 -37 0 -10 7 -12 20 -8 22
7 130 -24 130 -37 0 -5 -7 -22 -15 -38 -52 -101 -78 -362 -52 -515 11 -61 13
-91 6 -96 -12 -7 -270 -43 -429 -59 -216 -22 -501 -19 -780 10 -170 17 -347
42 -360 50 -9 5 -9 16 0 46 6 22 14 93 17 159 6 140 -13 276 -52 381 -14 37
-24 68 -23 69 2 1 34 12 72 24 87 28 208 88 314 157 77 50 87 54 145 54 81 1
262 36 304 59 1 1 44 -10 95 -24z m-1677 -391 l112 -27 -5 -151 c-2 -83 -8
-155 -12 -159 -16 -18 -246 105 -234 124 3 5 29 7 57 5 l52 -5 -52 16 c-28 8
-54 22 -57 30 -5 12 2 14 44 8 62 -9 65 1 5 16 -28 7 -45 17 -45 26 0 12 8 13
41 8 51 -9 46 11 -6 21 -55 10 -52 32 3 28 l47 -4 -42 16 c-53 19 -57 39 -7
29 44 -8 38 10 -6 20 -17 4 -28 11 -24 16 7 12 0 13 129 -17z m3399 12 c-3 -8
-15 -17 -27 -21 l-22 -8 23 -4 c19 -4 21 -7 11 -19 -6 -8 -18 -14 -25 -14 -8
0 -14 -4 -14 -9 0 -4 11 -6 25 -3 36 6 31 -15 -7 -32 l-33 -14 38 -1 c44 -1
41 -15 -6 -35 l-32 -14 38 -1 c49 -1 47 -16 -5 -34 l-43 -15 38 -1 c83 -2 25
-49 -128 -104 l-70 -25 -1 37 c0 20 -2 54 -3 76 -2 22 -3 75 -2 117 l1 77 43
12 c23 6 78 19 122 29 44 10 81 19 82 19 1 1 0 -5 -3 -13z m-3394 -375 c63
-28 171 -69 238 -92 l124 -41 -7 -127 c-4 -69 -11 -175 -16 -236 -5 -60 -12
-160 -16 -221 l-6 -111 -39 9 c-95 21 -271 84 -367 130 l-104 51 6 81 c3 45
13 191 22 326 18 274 21 294 38 286 7 -2 64 -28 127 -55z m3314 -48 c11 -115
19 -179 51 -428 9 -66 16 -140 18 -163 l2 -44 -102 -43 c-150 -65 -481 -156
-516 -142 -18 7 -36 128 -63 425 -4 45 -11 82 -15 82 -5 0 -9 28 -9 63 0 34
-4 76 -9 94 l-9 31 81 22 c141 36 389 111 467 140 41 15 80 28 86 29 7 1 14
-26 18 -66z m-2369 -203 c212 -33 537 -62 690 -62 105 1 313 19 437 38 30 5
39 4 34 -4 -4 -8 -2 -10 8 -6 16 6 21 -18 32 -168 3 -49 10 -88 15 -88 5 0 9
-25 9 -54 0 -30 9 -117 20 -192 27 -180 38 -168 -180 -184 -187 -14 -743 -8
-905 9 -177 19 -340 43 -351 52 -6 5 -8 32 -3 76 33 292 47 599 27 587 -7 -4
-8 -3 -4 4 7 12 58 10 171 -8z m865 -817 c0 -1 -28 -22 -62 -46 -35 -25 -86
-68 -115 -95 l-51 -50 -39 40 c-21 22 -73 66 -116 99 l-78 59 230 -2 c127 -2
231 -4 231 -5z m40 -50 c0 -10 -25 -35 -54 -56 -29 -21 -73 -59 -97 -85 -46
-48 -42 -47 26 6 55 42 142 92 149 85 13 -13 2 -25 -86 -91 -51 -38 -118 -92
-149 -120 l-56 -51 -29 30 c-16 17 -62 58 -101 91 -73 59 -73 60 -73 109 0 27
5 49 10 49 15 0 109 -72 149 -114 19 -20 40 -36 46 -36 6 0 27 16 46 36 35 38
198 164 212 164 4 0 7 -8 7 -17z"/>
</g>
</svg>
