<?xml version="1.0" encoding="utf-8"?>
<!-- Generator: Adobe Illustrator 25.2.1, SVG Export Plug-In . SVG Version: 6.00 Build 0)  -->
<svg version="1.1" id="Calque_1" xmlns="http://www.w3.org/2000/svg" xmlns:xlink="http://www.w3.org/1999/xlink" x="0px" y="0px"
	 viewBox="0 0 718.06 483.62" style="enable-background:new 0 0 718.06 483.62;" xml:space="preserve">
<style type="text/css">
	.st0{fill:#FFFFFF;}
</style>
<g id="Illustration_1_1_">
	<g>
		<path id="BiteSize_1_" class="st0" d="M317.81,106.4h50.49c18.61-0.31,39.02,4.53,39.02,27.07c0,9.67-5.76,17.53-14.21,21.77
			c11.48,3.32,18.59,13.31,18.59,25.55c0,25.71-18.9,33.57-42.04,33.57h-51.86V106.4z M345.92,148.89h21.77
			c4.83,0,11.49-2.56,11.49-10.28c0-7.86-5.6-10.43-11.49-10.43h-21.77V148.89z M345.92,191.82h22.53c8.92,0,15.11-3.16,15.11-12.08
			c0-9.54-6.64-12.72-15.11-12.72h-22.53V191.82z M420.94,106.4h28.12v107.96h-28.12V106.4z M551.53,130.59h-32.2v83.77h-28.12
			v-83.77h-32.22V106.4h92.54V130.59z M560.73,106.4h86.05v22.52h-57.93v18.91h52.92v21.77h-52.92v20.56h59.44v24.19h-87.56V106.4z
			 M345.92,295.21c0.6,12.7,8.47,16.78,20.42,16.78c8.46,0,17.24-3.03,17.24-11.03c0-9.53-15.43-11.34-31-15.73
			c-15.43-4.39-31.6-11.34-31.6-31.15c0-23.58,23.74-32.82,44-32.82c21.48,0,43.1,10.44,43.26,34.79H380.1
			c0.45-9.83-8.77-13.01-17.39-13.01c-6.04,0-13.61,2.12-13.61,9.22c0,8.33,15.58,9.84,31.31,14.22
			c15.56,4.38,31.29,11.63,31.29,31.15c0,27.37-23.28,36.13-47.02,36.13c-24.81,0-46.73-10.88-46.89-38.55H345.92z M420.74,223.53
			h28.12v107.97h-28.12V223.53z M457.93,308.51l55.34-60.8h-52.02v-24.19h88.31v21.79l-56.71,62h58.67v24.18h-93.6V308.51z
			 M560.73,223.53h86.05v22.53h-57.92v18.9h52.93v21.78h-52.93v20.57h59.43v24.18h-87.56V223.53z M317.79,351.37h18.6v3.91h-14.07
			v6.76h13.03v3.69h-13.03v7.57h14.33v3.92h-18.86V351.37z M343.3,351.37h4.78l11.78,19.03h0.08v-19.03h4.3v25.86h-4.77
			l-11.76-19.02h-0.12v19.02h-4.3V351.37z M369.86,351.37h20.92v3.91h-8.22v21.95h-4.53v-21.95h-8.17V351.37z M396.44,351.37h18.61
			v3.91h-14.08v6.76h13.02v3.69h-13.02v7.57h14.33v3.92h-18.86V351.37z M422.03,351.37h12.34c5.65,0,8.55,2.59,8.55,6.99
			c0,4.97-3.44,6.23-4.27,6.51v0.08c1.55,0.2,3.83,1.37,3.83,5.45c0,3.01,0.44,5.76,1.42,6.82h-4.85c-0.69-1.14-0.69-2.54-0.69-3.81
			c0-4.74-0.96-6.84-5.13-6.84h-6.67v10.66h-4.52V351.37z M426.54,363.13h7.43c2.86,0,4.41-1.41,4.41-4.12
			c0-3.3-2.13-3.95-4.49-3.95h-7.35V363.13z M447.92,351.37h20.93v3.91h-8.23v21.95h-4.51v-21.95h-8.19V351.37z M478.75,351.37h4.82
			l9.95,25.86h-4.85l-2.42-6.85h-10.32l-2.43,6.85h-4.67L478.75,351.37z M477.17,366.95h7.89l-3.87-11.12h-0.11L477.17,366.95z
			 M498.91,351.37h4.53v25.86h-4.53V351.37z M511.53,351.37h4.78l11.8,19.03h0.07v-19.03h4.31v25.86h-4.78l-11.76-19.02h-0.11v19.02
			h-4.31V351.37z M540.6,351.37h6.37l7.13,20.23h0.08l6.95-20.23h6.3v25.86h-4.31v-19.95h-0.07l-7.17,19.95h-3.74l-7.16-19.95h-0.08
			v19.95h-4.31V351.37z M575.64,351.37h18.61v3.91h-14.09v6.76h13.03v3.69h-13.03v7.57h14.33v3.92h-18.85V351.37z M601.13,351.37
			h4.79l11.79,19.03h0.08v-19.03h4.31v25.86h-4.78l-11.78-19.02h-0.1v19.02h-4.31V351.37z M627.7,351.37h20.92v3.91h-8.22v21.95
			h-4.51v-21.95h-8.19V351.37z M132.16,193.08c-6.38,0.59-8.02-0.4-9.53-0.96c-1.43,3.46-4.21,6.54-8.02,8.45
			c-6.17,3.09-13.18,2.16-17.5-1.82c-2.85,2.27-6.42,3.78-10.39,4.09c-3.67,0.28-7.17-0.51-10.17-2.06
			c-2.35,1.7-4.13,4.18-4.77,7.23c-0.73,3.49,0.13,6.94,2.07,9.63c-2.55,2.11-4.25,5.25-4.4,8.81c-0.17,3.57,1.25,6.84,3.61,9.16
			c-2.17,2.5-3.34,5.86-2.91,9.41c0.42,3.56,2.36,6.54,5.06,8.45c-1.74,2.82-2.33,6.33-1.34,9.77c1,3.43,3.38,6.06,6.38,7.51
			c-1.27,3.06-1.29,6.62,0.25,9.85c1.55,3.22,4.33,5.43,7.51,6.38c-0.75,3.23-0.19,6.74,1.87,9.66c2.04,2.93,5.16,4.66,8.44,5.08
			c-0.21,3.3,0.92,6.68,3.42,9.23c2.49,2.56,5.85,3.76,9.16,3.62c0.33,3.3,1.99,6.46,4.88,8.56c2.87,2.12,6.38,2.76,9.63,2.09
			c0.86,3.2,3.02,6.03,6.2,7.65c3.18,1.61,6.75,1.67,9.84,0.49c1.38,3.01,3.97,5.46,7.38,6.55c3.4,1.07,6.92,0.54,9.79-1.13
			c1.84,2.75,4.79,4.74,8.33,5.25c3.53,0.51,6.93-0.59,9.47-2.7c2.27,2.41,5.5,3.89,9.08,3.81c3.57-0.07,6.74-1.7,8.9-4.2
			c2.64,2.01,6.07,2.95,9.58,2.28c3.51-0.66,6.38-2.78,8.11-5.6c2.93,1.55,6.46,1.91,9.81,0.7c3.36-1.23,5.84-3.8,7.09-6.86
			c3.14,1.05,6.69,0.84,9.81-0.92c3.12-1.74,5.14-4.68,5.86-7.92c3.27,0.53,6.74-0.25,9.53-2.49c2.79-2.23,4.31-5.45,4.5-8.76
			c3.32-0.01,6.61-1.36,9-4.02c2.38-2.65,3.36-6.08,3.01-9.39c3.26-0.54,6.3-2.41,8.21-5.41c1.94-3.02,2.34-6.56,1.45-9.75
			c3.13-1.07,5.83-3.41,7.23-6.7c1.4-3.29,1.23-6.84-0.17-9.85c2.92-1.58,5.19-4.32,6.04-7.79c0.85-3.46,0.09-6.95-1.77-9.69
			c2.62-2.02,4.41-5.11,4.7-8.66c0.26-3.57-1.04-6.89-3.33-9.28c2.26-2.42,3.53-5.75,3.23-9.31c-0.32-3.56-2.15-6.62-4.81-8.61
			c1.85-2.76,2.55-6.25,1.66-9.71c-0.88-3.46-3.18-6.17-6.12-7.71c1.35-3.03,1.49-6.58,0.05-9.86c-1.45-3.27-4.16-5.57-7.3-6.62
			c0.85-3.19,0.4-6.73-1.56-9.72c-1.95-3-5-4.83-8.27-5.34c0.31-3.3-0.71-6.7-3.13-9.35c-2.41-2.63-5.73-3.94-9.03-3.91
			c-0.23-3.3-1.79-6.5-4.6-8.72c-2.81-2.2-6.3-2.96-9.57-2.39c-0.75-3.22-2.82-6.13-5.96-7.85c-3.13-1.71-6.69-1.89-9.82-0.8
			c-1.28-3.06-3.78-5.59-7.16-6.77c-3.36-1.19-6.91-0.77-9.81,0.81c-1.76-2.81-4.64-4.9-8.16-5.52c-3.52-0.62-6.94,0.36-9.56,2.4
			c-2.19-2.48-5.38-4.07-8.94-4.1c-2.81-0.04-5.38,0.91-7.45,2.49c-1.12,2.22-2.87,4.14-5.07,5.51c1.35,1.83,2.21,3.99,2.4,6.37
			c0.45,5.83-3.3,11.09-8.89,13.27c0.64,0.81,1.22,1.68,1.68,2.62c4.23,8.46-0.06,19.18-9.6,23.95c-2.39,1.2-4.88,1.91-7.34,2.16
			c-0.05,6.67-4.22,13.37-11.23,16.88C136.59,192.11,134.37,192.77,132.16,193.08 M129.68,279.59c-2.89,0-5.23-2.36-5.23-5.25
			c0-2.89,2.34-5.23,5.23-5.23c2.9,0,5.25,2.35,5.25,5.23C134.92,277.23,132.57,279.59,129.68,279.59z M129.68,236.65
			c-2.89,0-5.23-2.35-5.23-5.24c0-2.89,2.34-5.23,5.23-5.23c2.9,0,5.25,2.34,5.25,5.23C134.92,234.31,132.57,236.65,129.68,236.65z
			 M182.84,279.59c-2.9,0-5.23-2.36-5.23-5.25c0-2.89,2.33-5.23,5.23-5.23c2.9,0,5.25,2.35,5.25,5.23
			C188.09,277.23,185.74,279.59,182.84,279.59z M182.84,236.65c-2.9,0-5.23-2.35-5.23-5.24c0-2.89,2.33-5.23,5.23-5.23
			c2.9,0,5.25,2.34,5.25,5.23C188.09,234.31,185.74,236.65,182.84,236.65z M182.84,193.73c-2.9,0-5.23-2.34-5.23-5.23
			c0-2.89,2.33-5.24,5.23-5.24c2.9,0,5.25,2.35,5.25,5.24C188.09,191.39,185.74,193.73,182.84,193.73z M236.01,279.59
			c-2.89,0-5.25-2.36-5.25-5.25c0-2.89,2.36-5.23,5.25-5.23c2.89,0,5.24,2.35,5.24,5.23C241.25,277.23,238.9,279.59,236.01,279.59z
			 M236.01,236.65c-2.89,0-5.25-2.35-5.25-5.24c0-2.89,2.36-5.23,5.25-5.23c2.89,0,5.24,2.34,5.24,5.23
			C241.25,234.31,238.9,236.65,236.01,236.65z M236.01,193.73c-2.89,0-5.25-2.34-5.25-5.23c0-2.89,2.36-5.24,5.25-5.24
			c2.89,0,5.24,2.35,5.24,5.24C241.25,191.39,238.9,193.73,236.01,193.73z"/>
	</g>
</g>
</svg>
