<svg id="Calque_1" data-name="Calque 1" xmlns="http://www.w3.org/2000/svg" viewBox="0 0 276.86 242.57"><defs><style>.cls-1{fill:#168dff;}</style></defs><polygon class="cls-1" points="48.03 43.65 53.19 8.1 222.87 8.1 228.17 43.65 237.07 43.65 229.92 0 46.11 0 39.13 43.65 48.03 43.65"/><polygon class="cls-1" points="244.91 155.87 248.68 181.15 138.47 232.99 28.05 181.15 31.73 155.87 20.84 158.09 16.45 185.61 138.48 242.57 260.3 185.61 255.8 158.09 244.91 155.87"/><path class="cls-1" d="M17.88,63.59Q9.27,108.67.77,153.73c-.1.48-.15,1-.21,1.44C10.8,153,21.79,151,33.39,149.32l5.27-36.26H70.58l8.18-22H42l2.82-19.45H86.06l7.4-21.82H14.87c.94,3,1.74,5.81,2.7,8.51A9.87,9.87,0,0,1,17.88,63.59Z" transform="translate(-0.56 -1.03)"/><path class="cls-1" d="M103,62.78q-13.71,41-29.48,82c10.44-.87,21.22-1.54,32.26-2l2.34-8.11h31.48l1.86,7.49c10.76,0,21.33.31,31.65.77q-15.95-46.75-29.29-93.15H98.58c1.5,3.35,3,6.35,4.2,9.44A5.53,5.53,0,0,1,103,62.78Zm21.48,8.8,1.25,0c2.75,13.49,5.62,27,8.68,40.75H114.2C117.68,98.69,121.05,85.12,124.45,71.58Z" transform="translate(-0.56 -1.03)"/><path class="cls-1" d="M174.6,63.87q2.27,39.67,4.63,79.35,16.41.85,31.87,2.37l-4.48-43.39.63-.09c11.13,15.78,22.7,31.56,34.59,47.19,12.65,1.84,24.57,4,35.58,6.44l-20.5-106H229.65l8.11,54.33-.67.09C224,86,211.39,67.81,199.53,49.78H168.15c1.64,2.95,3.06,5.61,4.63,8.19A12.35,12.35,0,0,1,174.6,63.87Z" transform="translate(-0.56 -1.03)"/><path class="cls-1" d="M169.48,172.15c-1.64-2.13-3.2-4.18-4.76-6.24l-.12,0,.34,9.25H160l0-.49c-.13-4.41-.27-8.82-.39-13.23a2.06,2.06,0,0,0-.38-1.2c-.25-.34-.45-.71-.69-1.11h6c1.51,2.08,3.06,4.19,4.68,6.39,1.43-2.18,2.79-4.29,4.14-6.41h4.93l.9,16.06h-4.87l-.45-9.26-.14,0C172.32,168,170.93,170,169.48,172.15Z" transform="translate(-0.56 -1.03)"/><path class="cls-1" d="M68.68,167.07l-.76,8.13H63.05c0-.17,0-.33,0-.49q.66-6.61,1.34-13.23a2,2,0,0,0-.25-1.27c-.19-.32-.33-.66-.52-1.05h5.52c1.47,2.7,3,5.44,4.48,8.17l.13,0,.7-8.15h4.77l-1.28,16H73.37q-2.28-4-4.53-8.14Z" transform="translate(-0.56 -1.03)"/><path class="cls-1" d="M199.38,159.15h5.52q3,4.07,6,8.14l.13,0-.82-8.11H215l1.71,16h-4.59c-2-2.7-4-5.43-6.05-8.15l-.13,0,.76,8.14h-4.91l-.05-.49c-.38-4.42-.77-8.84-1.14-13.26a2.12,2.12,0,0,0-.44-1.17C199.89,159.93,199.67,159.57,199.38,159.15Z" transform="translate(-0.56 -1.03)"/><path class="cls-1" d="M136.7,159.15l-2.32,3.28h-6.11c-.77,0-1,.16-1,.76l-.12,8c0,.61.2.77,1,.77,1,0,1.94,0,2.91,0l.48,0,.05-6.51h4.83v9.81l-.51,0h-9.48a8.65,8.65,0,0,1-1.44-.11c-1.58-.27-2.55-1.15-2.67-2.4a7.12,7.12,0,0,1,0-.8c.06-3.15.12-6.31.19-9.46a5.31,5.31,0,0,1,.09-1c.29-1.31,1.34-2.09,3-2.29a6.51,6.51,0,0,1,.88-.06h9.72Z" transform="translate(-0.56 -1.03)"/><path class="cls-1" d="M95.42,162.43H89.31c-.78,0-1,.17-1,.76-.19,2.65-.36,5.31-.54,8,0,.6.16.77.94.77,1,0,1.94,0,2.91,0l.48,0,.4-6.51h4.81l-.54,9.81-.5,0H86.75a8.57,8.57,0,0,1-1.44-.11c-1.67-.3-2.54-1.23-2.54-2.69,0-.14,0-.28,0-.42.24-3.21.47-6.42.72-9.63a4.73,4.73,0,0,1,.21-1.11c.46-1.32,1.77-2.07,3.7-2.13H97.93Z" transform="translate(-0.56 -1.03)"/><path class="cls-1" d="M105.48,159.15h8q2.22,8,4.55,16h-5c-.24-1.08-.48-2.17-.73-3.28h-4.95c-.32,1.1-.65,2.19-1,3.29h-5c.08-.22.14-.43.21-.64q2.44-6.74,4.83-13.46a.75.75,0,0,0,0-.53C106,160.11,105.77,159.67,105.48,159.15Zm4.71,3.3H110l-1.75,6.1h3.27C111.05,166.49,110.66,164.47,110.19,162.45Z" transform="translate(-0.56 -1.03)"/><path class="cls-1" d="M50.49,162.43l-.35,2.93h6.75c-.94,1.14-1.81,2.21-2.71,3.29H49.75l-.39,3.27h8.31c-.94,1.15-1.82,2.21-2.71,3.28H44l.06-.46q.84-6.68,1.69-13.36a1.75,1.75,0,0,0-.18-1.1c-.19-.35-.33-.71-.52-1.12H59c-.89,1.11-1.76,2.17-2.65,3.27Z" transform="translate(-0.56 -1.03)"/><path class="cls-1" d="M148,168.64l.05,3.27h8.34l-2.28,3.3H143.12v-.46c0-4.45-.07-8.91-.09-13.36a1.73,1.73,0,0,0-.3-1c-.25-.37-.46-.76-.71-1.18h14l-2.22,3.26h-5.88l0,2.91h6.77l-2.27,3.3Z" transform="translate(-0.56 -1.03)"/><path class="cls-1" d="M191.7,168.66h-4.43l.22,3.26h8.31l-2.1,3.28H182.8c0-.17-.06-.34-.07-.51q-.4-6.6-.79-13.19a2.23,2.23,0,0,0-.42-1.24c-.26-.34-.46-.69-.72-1.09h14l-2,3.27h-5.86l.19,2.89h6.63l.08.09C193.08,166.49,192.4,167.56,191.7,168.66Z" transform="translate(-0.56 -1.03)"/><path class="cls-1" d="M219.66,159.15H233.5l.43,3.27h-4.51L231,175.19H226.1l-1.52-12.76H220Z" transform="translate(-0.56 -1.03)"/><path class="cls-1" d="M156.23,29.92h-3.59l.08,3.26h6.75l-1.8,3.28h-8.86c0-.17,0-.34,0-.51-.08-4.4-.17-8.79-.24-13.19a2.55,2.55,0,0,0-.3-1.24c-.2-.34-.35-.69-.55-1.09H159l-1.75,3.27h-4.75l.07,2.89h5.37l.07.09Z" transform="translate(-0.56 -1.03)"/><path class="cls-1" d="M113.74,20.43h11.2l-.07,3.26h-3.65l-.35,12.77h-4l.44-12.76h-3.69Z" transform="translate(-0.56 -1.03)"/><path class="cls-1" d="M142.64,36.46h-4V29.84H135.1l0,6.62h-4c0-.16,0-.3,0-.43.05-4.49.09-9,.15-13.48a1.79,1.79,0,0,0-.19-.85c-.21-.41-.39-.82-.6-1.27h4.69l0,6.07h3.54l0-6.07h3.88Z" transform="translate(-0.56 -1.03)"/><polyline class="cls-1" points="91.44 188.53 138.28 209.06 185.04 188.53"/></svg>