<?xml version="1.0" encoding="utf-8"?>
<!-- Generator: Adobe Illustrator 25.2.1, SVG Export Plug-In . SVG Version: 6.00 Build 0)  -->
<svg version="1.1" id="Calque_1" xmlns="http://www.w3.org/2000/svg" xmlns:xlink="http://www.w3.org/1999/xlink" x="0px" y="0px"
	 viewBox="0 0 346.4 334.3" style="enable-background:new 0 0 346.4 334.3;" xml:space="preserve">
<style type="text/css">
	.st0{fill:#168DFF;}
	.st1{enable-background:new    ;}
	.st2{fill:#FFF9E0;}
</style>
<g id="Groupe_120" transform="translate(-1351 -2545.26)">
	<g id="Groupe_8" transform="translate(1351 2545.26)">
		<g id="Groupe_6" transform="translate(0 0)">
			<path id="Tracé_137" class="st0" d="M43.5,60.2l7.1-49h233.8l7.3,49H304L294.2,0H40.9l-9.6,60.2H43.5z"/>
			<path id="Tracé_138" class="st0" d="M314.8,214.8l5.2,34.8l-151.9,71.4L16,249.6l5.1-34.8l-15,3.1L0,255.8l168.2,78.5
				l167.9-78.5l-6.2-37.9L314.8,214.8z"/>
		</g>
		<path id="Tracé_139" class="st0" d="M103.3,269l64.6,28.3l64.4-28.3"/>
	</g>
	<g class="st1">
		<path class="st0" d="M1492.2,2599.1c0-0.4-0.2-0.6-0.7-0.6h-2.7c-2.9,0-3.8-1.4-3.8-3.5v-3.7c0-2.1,1.1-3.5,4.1-3.5h3.8
			c3,0,4.1,1.4,4.1,3.5v2.2h-4.9v-1.5c0-0.4-0.2-0.6-0.7-0.6h-0.8c-0.5,0-0.7,0.2-0.7,0.6v2.7c0,0.4,0.2,0.6,0.7,0.6h2.6
			c2.9,0,3.8,1.3,3.8,3.4v3.7c0,2.1-1.1,3.5-4.1,3.5h-3.8c-3,0-4.1-1.4-4.1-3.5v-2.2h4.9v1.5c0,0.4,0.2,0.6,0.7,0.6h0.8
			c0.5,0,0.7-0.2,0.7-0.6V2599.1z"/>
		<path class="st0" d="M1509.9,2591.3h-3.5v14.5h-4.9v-14.5h-3.4v-3.5h11.8V2591.3z"/>
		<path class="st0" d="M1519.7,2603.1h-4.3l-0.6,2.7h-4.8l4.6-18h6l4.6,18h-4.9L1519.7,2603.1z M1519,2599.6l-1.4-6.5l-1.4,6.5H1519
			z"/>
		<path class="st0" d="M1537.2,2591.3h-3.5v14.5h-4.9v-14.5h-3.4v-3.5h11.8V2591.3z"/>
		<path class="st0" d="M1545.3,2599.1c0-0.4-0.2-0.6-0.7-0.6h-2.7c-2.9,0-3.8-1.4-3.8-3.5v-3.7c0-2.1,1.1-3.5,4.1-3.5h3.8
			c3,0,4.1,1.4,4.1,3.5v2.2h-4.9v-1.5c0-0.4-0.2-0.6-0.7-0.6h-0.8c-0.5,0-0.7,0.2-0.7,0.6v2.7c0,0.4,0.2,0.6,0.7,0.6h2.6
			c2.9,0,3.8,1.3,3.8,3.4v3.7c0,2.1-1.1,3.5-4.1,3.5h-3.8c-3,0-4.1-1.4-4.1-3.5v-2.2h4.9v1.5c0,0.4,0.2,0.6,0.7,0.6h0.8
			c0.5,0,0.7-0.2,0.7-0.6V2599.1z"/>
	</g>
	<g class="st1">
		<path class="st2" d="M1402.2,2664.3h-31.3v-15.4c0-13.4,7.2-22.2,26.3-22.2h22c19.2,0,26.3,8.8,26.3,22.2v14
			c0,9.3-1.6,16.5-8.6,20.2c7,3,8.6,9.3,8.6,18.4v17.9c0,13.4-7.2,22.2-26.3,22.2h-22c-19.2,0-26.3-8.8-26.3-22.2V2704h31.3v11.3
			c0,2.7,1.4,3.9,4.5,3.9h3.6c3,0,4.5-1.3,4.5-3.9v-17.7c0-2.7-1.4-3.9-4.5-3.9h-14.5V2673h14.5c3,0,4.5-1.3,4.5-3.9V2653
			c0-2.7-1.4-3.9-4.5-3.9h-3.6c-3,0-4.5,1.3-4.5,3.9V2664.3z"/>
		<path class="st2" d="M1487.2,2666.1h-31.3v-17.2c0-13.4,7.2-22.2,26.3-22.2h21.7c19.2,0,26.7,8.8,26.7,22.2v16.5
			c0,12.5-4.3,19.9-12.5,29l-22.2,24.9h34.7v22.4h-73.7v-20.4l34-36.5c7.2-7.5,9-11.6,9-19.5V2653c0-2.7-1.4-3.9-4.5-3.9h-3.6
			c-3,0-4.5,1.3-4.5,3.9V2666.1z"/>
		<path class="st2" d="M1600.7,2677.3c0,10.7-5.7,17.9-21.1,17.9h-18.3c-15.4,0-21.1-7.2-21.1-17.9v-32.8c0-10.9,5.7-17.9,21.1-17.9
			h18.3c15.4,0,21.1,7,21.1,17.9V2677.3z M1575.4,2648.2c0-2.1-1.1-3.2-3.6-3.2h-2.9c-2.5,0-3.6,1.1-3.6,3.2v25.6c0,2.1,1.1,3,3.6,3
			h2.9c2.5,0,3.6-0.9,3.6-3V2648.2z M1660.1,2626.7l-65,114.9h-22.4l64.6-114.9H1660.1z M1692,2723.7c0,10.7-5.7,17.9-21.1,17.9
			h-18.3c-15.4,0-21.1-7.2-21.1-17.9v-32.8c0-10.9,5.7-17.9,21.1-17.9h18.3c15.4,0,21.1,7,21.1,17.9V2723.7z M1666.7,2694.5
			c0-2.1-1.1-3.2-3.6-3.2h-2.9c-2.5,0-3.6,1.1-3.6,3.2v25.6c0,2.1,1.1,3,3.6,3h2.9c2.5,0,3.6-0.9,3.6-3V2694.5z"/>
	</g>
	<g class="st1">
		<path class="st2" d="M1441.1,2767c2.4,0,3.2,1.1,3.2,2.7v8.7c0,1.7-0.9,2.7-3.2,2.7h-3.3c-2.4,0-3.2-1.1-3.2-2.7v-8.7
			c0-1.7,0.9-2.7,3.2-2.7H1441.1z M1440.5,2770.2c0-0.3-0.2-0.5-0.6-0.5h-0.9c-0.4,0-0.6,0.2-0.6,0.5v7.7c0,0.3,0.2,0.5,0.6,0.5h0.9
			c0.4,0,0.6-0.2,0.6-0.5V2770.2z"/>
		<path class="st2" d="M1449.9,2769.7v3.4h4v2.5h-4v5.4h-3.9V2767h8.5v2.8H1449.9z"/>
		<path class="st2" d="M1469.9,2767v11.4c0,1.7-0.9,2.7-3.2,2.7h-3.3c-2.4,0-3.2-1.1-3.2-2.7V2767h3.9v10.9c0,0.3,0.2,0.5,0.6,0.5
			h0.9c0.4,0,0.5-0.2,0.5-0.5V2767H1469.9z"/>
		<path class="st2" d="M1477,2775.9c0-0.3-0.2-0.5-0.6-0.5h-2.1c-2.3,0-3-1.1-3-2.8v-2.9c0-1.7,0.9-2.7,3.2-2.7h3
			c2.4,0,3.2,1.1,3.2,2.7v1.7h-3.9v-1.2c0-0.3-0.2-0.5-0.6-0.5h-0.6c-0.4,0-0.5,0.2-0.5,0.5v2.1c0,0.3,0.2,0.5,0.5,0.5h2.1
			c2.3,0,3,1,3,2.7v2.9c0,1.7-0.9,2.7-3.2,2.7h-3c-2.4,0-3.2-1.1-3.2-2.7v-1.7h3.9v1.2c0,0.3,0.2,0.5,0.5,0.5h0.6
			c0.4,0,0.6-0.2,0.6-0.5V2775.9z"/>
		<path class="st2" d="M1491.1,2778.4v2.8h-8.7V2767h8.5v2.8h-4.6v2.9h4v2.8h-4v3H1491.1z"/>
		<path class="st2" d="M1496.4,2776.1h-0.2v5h-3.9V2767h6.5c2.4,0,3.2,1.1,3.2,2.7v3.7c0,1.3-0.5,2.2-1.9,2.6l2.6,5.2h-4.1
			L1496.4,2776.1z M1496.2,2769.7v3.7h1.5c0.4,0,0.5-0.2,0.5-0.5v-2.8c0-0.3-0.2-0.5-0.5-0.5H1496.2z"/>
		<path class="st2" d="M1509,2775.9c0-0.3-0.2-0.5-0.6-0.5h-2.1c-2.3,0-3-1.1-3-2.8v-2.9c0-1.7,0.9-2.7,3.2-2.7h3
			c2.4,0,3.2,1.1,3.2,2.7v1.7h-3.9v-1.2c0-0.3-0.2-0.5-0.6-0.5h-0.6c-0.4,0-0.5,0.2-0.5,0.5v2.1c0,0.3,0.2,0.5,0.5,0.5h2.1
			c2.3,0,3,1,3,2.7v2.9c0,1.7-0.9,2.7-3.2,2.7h-3c-2.4,0-3.2-1.1-3.2-2.7v-1.7h3.9v1.2c0,0.3,0.2,0.5,0.6,0.5h0.6
			c0.4,0,0.6-0.2,0.6-0.5V2775.9z"/>
		<path class="st2" d="M1522.9,2776.1h-0.2v5h-3.9V2767h6.5c2.4,0,3.2,1.1,3.2,2.7v3.7c0,1.3-0.5,2.2-1.9,2.6l2.6,5.2h-4.1
			L1522.9,2776.1z M1522.7,2769.7v3.7h1.5c0.4,0,0.5-0.2,0.5-0.5v-2.8c0-0.3-0.2-0.5-0.5-0.5H1522.7z"/>
		<path class="st2" d="M1538.8,2778.4v2.8h-8.7V2767h8.5v2.8h-4.6v2.9h4v2.8h-4v3H1538.8z"/>
		<path class="st2" d="M1545.4,2775.9c0-0.3-0.2-0.5-0.6-0.5h-2.1c-2.3,0-3-1.1-3-2.8v-2.9c0-1.7,0.9-2.7,3.2-2.7h3
			c2.4,0,3.2,1.1,3.2,2.7v1.7h-3.9v-1.2c0-0.3-0.2-0.5-0.6-0.5h-0.6c-0.4,0-0.5,0.2-0.5,0.5v2.1c0,0.3,0.2,0.5,0.5,0.5h2.1
			c2.3,0,3,1,3,2.7v2.9c0,1.7-0.9,2.7-3.2,2.7h-3c-2.4,0-3.2-1.1-3.2-2.7v-1.7h3.9v1.2c0,0.3,0.2,0.5,0.5,0.5h0.6
			c0.4,0,0.6-0.2,0.6-0.5V2775.9z"/>
		<path class="st2" d="M1557.3,2767c2.4,0,3.2,1.1,3.2,2.7v4c0,1.6-0.9,2.7-3.2,2.7h-2.7v4.6h-3.8V2767H1557.3z M1556.7,2770.2
			c0-0.3-0.2-0.5-0.5-0.5h-1.5v4h1.5c0.4,0,0.5-0.2,0.5-0.5V2770.2z"/>
		<path class="st2" d="M1568.3,2767c2.4,0,3.2,1.1,3.2,2.7v8.7c0,1.7-0.9,2.7-3.2,2.7h-3.3c-2.4,0-3.2-1.1-3.2-2.7v-8.7
			c0-1.7,0.9-2.7,3.2-2.7H1568.3z M1567.7,2770.2c0-0.3-0.2-0.5-0.6-0.5h-0.9c-0.4,0-0.5,0.2-0.5,0.5v7.7c0,0.3,0.2,0.5,0.5,0.5h0.9
			c0.4,0,0.6-0.2,0.6-0.5V2770.2z"/>
		<path class="st2" d="M1583.2,2767v14.1h-3.3l-3.1-7.4v7.4h-3.5V2767h3.3l3.1,7.5v-7.5H1583.2z"/>
		<path class="st2" d="M1591.7,2767c2.4,0,3.2,1.1,3.2,2.7v8.7c0,1.7-0.9,2.7-3.2,2.7h-6.5V2767H1591.7z M1591.1,2770
			c0-0.3-0.2-0.5-0.5-0.5h-1.5v9.1h1.5c0.4,0,0.5-0.2,0.5-0.5V2770z"/>
	</g>
	<g class="st1">
		<path class="st2" d="M1457.1,2787.7h-2.7v11.4h-3.9v-11.4h-2.7v-2.8h9.3V2787.7z"/>
		<path class="st2" d="M1464.5,2785c2.4,0,3.2,1.1,3.2,2.7v8.7c0,1.7-0.9,2.7-3.2,2.7h-3.3c-2.4,0-3.2-1.1-3.2-2.7v-8.7
			c0-1.7,0.9-2.7,3.2-2.7H1464.5z M1463.8,2788.2c0-0.3-0.2-0.5-0.5-0.5h-0.9c-0.4,0-0.6,0.2-0.6,0.5v7.7c0,0.3,0.2,0.5,0.6,0.5h0.9
			c0.4,0,0.5-0.2,0.5-0.5V2788.2z"/>
		<path class="st2" d="M1479.2,2793.9c0-0.3-0.2-0.5-0.5-0.5h-2.1c-2.3,0-3-1.1-3-2.8v-2.9c0-1.7,0.9-2.7,3.2-2.7h3
			c2.4,0,3.2,1.1,3.2,2.7v1.7h-3.9v-1.2c0-0.3-0.2-0.5-0.5-0.5h-0.6c-0.4,0-0.5,0.2-0.5,0.5v2.1c0,0.3,0.2,0.5,0.5,0.5h2.1
			c2.3,0,3,1,3,2.7v2.9c0,1.7-0.9,2.7-3.2,2.7h-3c-2.4,0-3.2-1.1-3.2-2.7v-1.7h3.9v1.2c0,0.3,0.2,0.5,0.6,0.5h0.6
			c0.4,0,0.5-0.2,0.5-0.5V2793.9z"/>
		<path class="st2" d="M1489.8,2796.1l-1.7-5.9v8.9h-3.4V2785h4.2l2.3,7.5l2.3-7.5h4.2v14.1h-3.4v-9l-1.8,5.9H1489.8z"/>
		<path class="st2" d="M1504.7,2793.9c0-0.3-0.2-0.5-0.5-0.5h-2.1c-2.3,0-3-1.1-3-2.8v-2.9c0-1.7,0.9-2.7,3.2-2.7h3
			c2.4,0,3.2,1.1,3.2,2.7v1.7h-3.9v-1.2c0-0.3-0.2-0.5-0.5-0.5h-0.6c-0.4,0-0.5,0.2-0.5,0.5v2.1c0,0.3,0.2,0.5,0.5,0.5h2.1
			c2.3,0,3,1,3,2.7v2.9c0,1.7-0.9,2.7-3.2,2.7h-3c-2.4,0-3.2-1.1-3.2-2.7v-1.7h3.9v1.2c0,0.3,0.2,0.5,0.6,0.5h0.6
			c0.4,0,0.5-0.2,0.5-0.5V2793.9z"/>
		<path class="st2" d="M1521,2785c2.4,0,3.2,1.1,3.2,2.7v8.7c0,1.7-0.9,2.7-3.2,2.7h-3.3c-2.4,0-3.2-1.1-3.2-2.7v-8.7
			c0-1.7,0.9-2.7,3.2-2.7H1521z M1520.3,2788.2c0-0.3-0.2-0.5-0.6-0.5h-0.9c-0.4,0-0.5,0.2-0.5,0.5v7.7c0,0.3,0.2,0.5,0.5,0.5h0.9
			c0.4,0,0.6-0.2,0.6-0.5V2788.2z"/>
		<path class="st2" d="M1529.7,2787.7v3.4h4v2.5h-4v5.4h-3.8V2785h8.5v2.8H1529.7z"/>
		<path class="st2" d="M1539.4,2787.7v3.4h4v2.5h-4v5.4h-3.8V2785h8.5v2.8H1539.4z"/>
		<path class="st2" d="M1553.9,2796.4v2.8h-8.7V2785h8.5v2.8h-4.6v2.9h4v2.8h-4v3H1553.9z"/>
		<path class="st2" d="M1559.2,2794.1h-0.2v5h-3.8V2785h6.5c2.4,0,3.2,1.1,3.2,2.7v3.7c0,1.3-0.5,2.2-1.9,2.6l2.6,5.2h-4.1
			L1559.2,2794.1z M1559,2787.7v3.7h1.5c0.4,0,0.5-0.2,0.5-0.5v-2.8c0-0.3-0.2-0.5-0.5-0.5H1559z"/>
		<path class="st2" d="M1571.8,2793.9c0-0.3-0.2-0.5-0.5-0.5h-2.1c-2.3,0-3-1.1-3-2.8v-2.9c0-1.7,0.9-2.7,3.2-2.7h3
			c2.4,0,3.2,1.1,3.2,2.7v1.7h-3.9v-1.2c0-0.3-0.2-0.5-0.5-0.5h-0.6c-0.4,0-0.5,0.2-0.5,0.5v2.1c0,0.3,0.2,0.5,0.5,0.5h2.1
			c2.3,0,3,1,3,2.7v2.9c0,1.7-0.9,2.7-3.2,2.7h-3c-2.4,0-3.2-1.1-3.2-2.7v-1.7h3.9v1.2c0,0.3,0.2,0.5,0.6,0.5h0.6
			c0.4,0,0.5-0.2,0.5-0.5V2793.9z"/>
		<path class="st2" d="M1577.2,2795.5h3.8v3.6h-3.8V2795.5z"/>
	</g>
</g>
</svg>
