<?xml version="1.0" encoding="utf-8"?>
<!-- Generator: Adobe Illustrator 25.2.1, SVG Export Plug-In . SVG Version: 6.00 Build 0)  -->
<svg version="1.1" id="Calque_1" xmlns="http://www.w3.org/2000/svg" xmlns:xlink="http://www.w3.org/1999/xlink" x="0px" y="0px"
	 viewBox="0 0 350 326.3" style="enable-background:new 0 0 350 326.3;" xml:space="preserve">
<style type="text/css">
	.st0{fill:#168DFF;}
	.st1{enable-background:new    ;}
	.st2{fill:#FFF9E0;}
</style>
<g id="Groupe_121" transform="translate(-233 -2545.26)">
	<g id="Groupe_71" transform="translate(-832 -2578.612)">
		<g id="Groupe_8" transform="translate(1065 5123.873)">
			<g id="Groupe_6" transform="translate(0 0)">
				<path id="Tracé_137" class="st0" d="M42.5,58.7l6.9-47.8h228.3l7.1,47.8h12L287.2,0H39.9l-9.4,58.7L42.5,58.7z"/>
				<path id="Tracé_138" class="st0" d="M307.3,209.7l5.1,34l-148.3,69.7L15.6,243.7l4.9-34l-14.6,3l-5.9,37l164.2,76.6L328,249.7
					l-6.1-37L307.3,209.7z"/>
			</g>
			<path id="Tracé_139" class="st0" d="M100.9,264.6l63,27.6l62.9-27.6"/>
		</g>
		<g class="st1">
			<path class="st0" d="M1203,5176.9c0-0.4-0.2-0.6-0.7-0.6h-2.7c-2.9,0-3.8-1.4-3.8-3.5v-3.7c0-2.1,1.1-3.5,4.1-3.5h3.8
				c3,0,4.1,1.4,4.1,3.5v2.2h-4.9v-1.5c0-0.4-0.2-0.6-0.7-0.6h-0.8c-0.5,0-0.7,0.2-0.7,0.6v2.7c0,0.4,0.2,0.6,0.7,0.6h2.6
				c2.9,0,3.8,1.3,3.8,3.4v3.7c0,2.1-1.1,3.5-4.1,3.5h-3.8c-3,0-4.1-1.4-4.1-3.5v-2.2h4.9v1.5c0,0.4,0.2,0.6,0.7,0.6h0.8
				c0.5,0,0.7-0.2,0.7-0.6V5176.9z"/>
			<path class="st0" d="M1220.7,5169.1h-3.5v14.5h-4.9v-14.5h-3.4v-3.5h11.8V5169.1z"/>
			<path class="st0" d="M1230.6,5180.9h-4.3l-0.6,2.7h-4.8l4.6-18h6l4.6,18h-4.9L1230.6,5180.9z M1229.8,5177.5l-1.4-6.5l-1.4,6.5
				H1229.8z"/>
			<path class="st0" d="M1248,5169.1h-3.5v14.5h-4.9v-14.5h-3.4v-3.5h11.8V5169.1z"/>
			<path class="st0" d="M1256.2,5176.9c0-0.4-0.2-0.6-0.7-0.6h-2.7c-2.9,0-3.8-1.4-3.8-3.5v-3.7c0-2.1,1.1-3.5,4.1-3.5h3.8
				c3,0,4.1,1.4,4.1,3.5v2.2h-4.9v-1.5c0-0.4-0.2-0.6-0.7-0.6h-0.8c-0.5,0-0.7,0.2-0.7,0.6v2.7c0,0.4,0.2,0.6,0.7,0.6h2.6
				c2.9,0,3.8,1.3,3.8,3.4v3.7c0,2.1-1.1,3.5-4.1,3.5h-3.8c-3,0-4.1-1.4-4.1-3.5v-2.2h4.9v1.5c0,0.4,0.2,0.6,0.7,0.6h0.8
				c0.5,0,0.7-0.2,0.7-0.6V5176.9z"/>
		</g>
		<g class="st1">
			<path class="st2" d="M1134.9,5203c18.9,0,26,8.7,26,21.9v69.7c0,13.3-7.1,21.9-26,21.9h-22.1c-18.9,0-26-8.7-26-21.9v-11.9h30.1
				v7.8c0,2.7,1.4,3.9,4.4,3.9h5.1c3,0,4.4-1.2,4.4-3.9v-17.7h-19.5c-18.9,0-26-8.7-26-21.9v-26c0-13.3,7.1-21.9,26-21.9H1134.9z
				 M1130.8,5252.5V5229c0-2.7-1.4-3.9-4.4-3.9h-6.5c-3,0-4.4,1.2-4.4,3.9v19.6c0,2.7,1.4,3.9,4.4,3.9H1130.8z"/>
			<path class="st2" d="M1249.4,5238.7c0,9.2-1.6,16.3-8.5,20c6.9,3,8.5,9.2,8.5,18.2v17.7c0,13.3-7.1,21.9-26,21.9h-23.7
				c-18.9,0-26-8.7-26-21.9V5277c0-9,1.6-15.2,8.3-18.2c-6.7-3.7-8.3-10.8-8.3-20v-13.8c0-13.3,7.1-21.9,26-21.9h23.7
				c18.9,0,26,8.7,26,21.9V5238.7z M1219.8,5228.6c0-2.7-1.4-3.9-4.4-3.9h-7.8c-3,0-4.4,1.2-4.4,3.9v17.2c0,2.7,1.4,3.9,4.4,3.9h7.8
				c3,0,4.4-1.2,4.4-3.9V5228.6z M1219.8,5272.2c0-2.7-1.4-3.9-4.4-3.9h-7.8c-3,0-4.4,1.2-4.4,3.9v18.8c0,2.7,1.4,3.9,4.4,3.9h7.8
				c3,0,4.4-1.2,4.4-3.9V5272.2z"/>
			<path class="st2" d="M1319.8,5253.1c0,10.6-5.7,17.7-20.9,17.7h-18.1c-15.2,0-20.9-7.1-20.9-17.7v-32.4
				c0-10.8,5.7-17.7,20.9-17.7h18.1c15.2,0,20.9,6.9,20.9,17.7V5253.1z M1294.9,5224.2c0-2.1-1.1-3.2-3.5-3.2h-2.8
				c-2.5,0-3.5,1.1-3.5,3.2v25.3c0,2.1,1.1,3,3.5,3h2.8c2.5,0,3.5-0.9,3.5-3V5224.2z M1378.6,5203l-64.3,113.6h-22.1l63.9-113.6
				H1378.6z M1410.1,5298.9c0,10.6-5.7,17.7-20.9,17.7h-18.1c-15.2,0-20.9-7.1-20.9-17.7v-32.4c0-10.8,5.7-17.7,20.9-17.7h18.1
				c15.2,0,20.9,6.9,20.9,17.7V5298.9z M1385.1,5270.1c0-2.1-1.1-3.2-3.5-3.2h-2.8c-2.5,0-3.5,1.1-3.5,3.2v25.3c0,2.1,1.1,3,3.5,3
				h2.8c2.5,0,3.5-0.9,3.5-3V5270.1z"/>
		</g>
		<g class="st1">
			<path class="st2" d="M1148.3,5342.5c2.4,0,3.2,1.1,3.2,2.7v8.7c0,1.7-0.9,2.7-3.2,2.7h-3.3c-2.4,0-3.2-1.1-3.2-2.7v-8.7
				c0-1.7,0.9-2.7,3.2-2.7H1148.3z M1147.7,5345.7c0-0.3-0.2-0.5-0.6-0.5h-0.9c-0.4,0-0.6,0.2-0.6,0.5v7.7c0,0.3,0.2,0.5,0.6,0.5
				h0.9c0.4,0,0.6-0.2,0.6-0.5V5345.7z"/>
			<path class="st2" d="M1159.8,5342.5c2.4,0,3.2,1.1,3.2,2.7v4c0,1.7-0.9,2.7-3.2,2.7h-2.7v4.6h-3.9v-14.1H1159.8z M1159.2,5345.7
				c0-0.3-0.2-0.5-0.5-0.5h-1.5v4h1.5c0.4,0,0.5-0.2,0.5-0.5V5345.7z"/>
			<path class="st2" d="M1173,5353.9v2.8h-8.7v-14.1h8.5v2.8h-4.6v2.9h4v2.8h-4v3H1173z"/>
			<path class="st2" d="M1184.2,5342.5v14.1h-3.3l-3.1-7.4v7.4h-3.5v-14.1h3.3l3.1,7.5v-7.5H1184.2z"/>
			<path class="st2" d="M1194.4,5351.6h-0.2v5h-3.9v-14.1h6.5c2.4,0,3.2,1.1,3.2,2.7v3.7c0,1.3-0.5,2.2-1.9,2.6l2.6,5.2h-4.1
				L1194.4,5351.6z M1194.2,5345.2v3.7h1.5c0.4,0,0.5-0.2,0.5-0.5v-2.8c0-0.3-0.2-0.5-0.5-0.5H1194.2z"/>
			<path class="st2" d="M1208.4,5354.5h-3.4l-0.5,2.1h-3.8l3.6-14.1h4.7l3.6,14.1h-3.9L1208.4,5354.5z M1207.8,5351.8l-1.1-5.1
				l-1.1,5.1H1207.8z"/>
			<path class="st2" d="M1222.1,5345.2h-2.7v11.4h-3.9v-11.4h-2.7v-2.8h9.3V5345.2z"/>
			<path class="st2" d="M1231.8,5353.9v2.8h-8.7v-14.1h8.5v2.8h-4.6v2.9h4v2.8h-4v3H1231.8z"/>
			<path class="st2" d="M1236.8,5353v2l-2.6,4.9h-1.1v-6.9H1236.8z"/>
			<path class="st2" d="M1249.4,5342.5c2.4,0,3.2,1.1,3.2,2.7v1.8c0,1.1-0.2,2-1.1,2.5c0.9,0.4,1.1,1.1,1.1,2.3v2.1
				c0,1.7-0.9,2.7-3.2,2.7h-6.5v-14.1H1249.4z M1248.8,5345.5c0-0.3-0.2-0.5-0.5-0.5h-1.6v3.3h1.6c0.4,0,0.5-0.2,0.5-0.5V5345.5z
				 M1248.8,5351.3c0-0.3-0.2-0.5-0.5-0.5h-1.6v3.3h1.6c0.4,0,0.5-0.2,0.5-0.5V5351.3z"/>
			<path class="st2" d="M1262.5,5353.9v2.8h-8.2v-14.1h3.9v11.4H1262.5z"/>
			<path class="st2" d="M1269.8,5342.5c2.4,0,3.2,1.1,3.2,2.7v8.7c0,1.7-0.9,2.7-3.2,2.7h-3.3c-2.4,0-3.2-1.1-3.2-2.7v-8.7
				c0-1.7,0.9-2.7,3.2-2.7H1269.8z M1269.2,5345.7c0-0.3-0.2-0.5-0.5-0.5h-0.9c-0.4,0-0.6,0.2-0.6,0.5v7.7c0,0.3,0.2,0.5,0.6,0.5
				h0.9c0.4,0,0.5-0.2,0.5-0.5V5345.7z"/>
			<path class="st2" d="M1292,5342.5l-3,14.1h-4.4l-1.6-8.4l-1.6,8.4h-4.4l-3-14.1h4l1.2,9.5l1.9-9.5h3.8l1.9,9.5l1.4-9.5H1292z"/>
			<path class="st2" d="M1297,5342.5v14.1h-3.9v-14.1H1297z"/>
			<path class="st2" d="M1308.7,5342.5v14.1h-3.3l-3.1-7.4v7.4h-3.5v-14.1h3.3l3.1,7.5v-7.5H1308.7z"/>
			<path class="st2" d="M1316.1,5347.3v-1.8c0-0.3-0.2-0.5-0.5-0.5h-0.8c-0.4,0-0.5,0.2-0.5,0.5v8.1c0,0.3,0.2,0.5,0.5,0.5h0.8
				c0.4,0,0.5-0.2,0.5-0.5v-2.4h-1.1v-2.4h5v5.1c0,1.7-0.9,2.7-3.2,2.7h-3.1c-2.4,0-3.2-1.1-3.2-2.7v-8.7c0-1.7,0.9-2.7,3.2-2.7h3.1
				c2.4,0,3.2,1.1,3.2,2.7v2.1H1316.1z"/>
		</g>
		<g class="st1">
			<path class="st2" d="M1133.7,5372.5h-3.4l-0.5,2.1h-3.8l3.6-14.1h4.7l3.6,14.1h-3.9L1133.7,5372.5z M1133.1,5369.8l-1.1-5.1
				l-1.1,5.1H1133.1z"/>
			<path class="st2" d="M1156.2,5360.5l-3,14.1h-4.4l-1.6-8.4l-1.6,8.4h-4.4l-3-14.1h4l1.2,9.5l1.9-9.5h3.8l1.9,9.5l1.4-9.5H1156.2z
				"/>
			<path class="st2" d="M1164,5372.5h-3.4l-0.5,2.1h-3.8l3.6-14.1h4.7l3.6,14.1h-3.9L1164,5372.5z M1163.4,5369.8l-1.1-5.1l-1.1,5.1
				H1163.4z"/>
			<path class="st2" d="M1176.1,5370v4.6h-3.9v-4.6l-3.9-9.6h3.9l1.8,6l1.7-6h3.9L1176.1,5370z"/>
			<path class="st2" d="M1191.8,5372.5h-3.4l-0.5,2.1h-3.8l3.6-14.1h4.7l3.6,14.1h-3.9L1191.8,5372.5z M1191.2,5369.8l-1.1-5.1
				l-1.1,5.1H1191.2z"/>
			<path class="st2" d="M1205.2,5371.9v2.8h-8.2v-14.1h3.9v11.4H1205.2z"/>
			<path class="st2" d="M1214.3,5371.9v2.8h-8.2v-14.1h3.9v11.4H1214.3z"/>
			<path class="st2" d="M1225.2,5365.8v-2.3c0-0.3-0.2-0.5-0.5-0.5h-0.8c-0.4,0-0.6,0.2-0.6,0.5v8.1c0,0.3,0.2,0.5,0.6,0.5h0.8
				c0.4,0,0.5-0.2,0.5-0.5v-2.2h3.9v2.5c0,1.7-0.9,2.7-3.2,2.7h-3.1c-2.4,0-3.2-1.1-3.2-2.7v-8.7c0-1.7,0.9-2.7,3.2-2.7h3.1
				c2.4,0,3.2,1.1,3.2,2.7v2.6H1225.2z"/>
			<path class="st2" d="M1236.9,5360.5c2.4,0,3.2,1.1,3.2,2.7v8.7c0,1.7-0.9,2.7-3.2,2.7h-3.3c-2.4,0-3.2-1.1-3.2-2.7v-8.7
				c0-1.7,0.9-2.7,3.2-2.7H1236.9z M1236.3,5363.7c0-0.3-0.2-0.5-0.6-0.5h-0.9c-0.4,0-0.6,0.2-0.6,0.5v7.7c0,0.3,0.2,0.5,0.6,0.5
				h0.9c0.4,0,0.6-0.2,0.6-0.5V5363.7z"/>
			<path class="st2" d="M1247,5371.6l-1.7-5.9v8.9h-3.4v-14.1h4.2l2.3,7.5l2.3-7.5h4.2v14.1h-3.4v-9l-1.8,5.9H1247z"/>
			<path class="st2" d="M1263.1,5360.5c2.4,0,3.2,1.1,3.2,2.7v4c0,1.7-0.9,2.7-3.2,2.7h-2.7v4.6h-3.9v-14.1H1263.1z M1262.5,5363.7
				c0-0.3-0.2-0.5-0.5-0.5h-1.5v4h1.5c0.4,0,0.5-0.2,0.5-0.5V5363.7z"/>
			<path class="st2" d="M1276.4,5371.9v2.8h-8.7v-14.1h8.5v2.8h-4.6v2.9h4v2.8h-4v3H1276.4z"/>
			<path class="st2" d="M1286.1,5363.2h-2.7v11.4h-3.9v-11.4h-2.7v-2.8h9.3V5363.2z"/>
			<path class="st2" d="M1290.9,5360.5v14.1h-3.9v-14.1H1290.9z"/>
			<path class="st2" d="M1301.2,5363.2h-2.7v11.4h-3.9v-11.4h-2.7v-2.8h9.3V5363.2z"/>
			<path class="st2" d="M1306,5360.5v14.1h-3.8v-14.1H1306z"/>
			<path class="st2" d="M1314.2,5360.5c2.4,0,3.2,1.1,3.2,2.7v8.7c0,1.7-0.9,2.7-3.2,2.7h-3.3c-2.4,0-3.2-1.1-3.2-2.7v-8.7
				c0-1.7,0.9-2.7,3.2-2.7H1314.2z M1313.6,5363.7c0-0.3-0.2-0.5-0.5-0.5h-0.9c-0.4,0-0.6,0.2-0.6,0.5v7.7c0,0.3,0.2,0.5,0.6,0.5
				h0.9c0.4,0,0.5-0.2,0.5-0.5V5363.7z"/>
			<path class="st2" d="M1329.1,5360.5v14.1h-3.3l-3.1-7.4v7.4h-3.5v-14.1h3.3l3.1,7.5v-7.5H1329.1z"/>
			<path class="st2" d="M1330.9,5371h3.8v3.6h-3.8V5371z"/>
		</g>
	</g>
</g>
</svg>
