<?xml version="1.0" encoding="utf-8"?>
<!-- Generator: Adobe Illustrator 25.2.1, SVG Export Plug-In . SVG Version: 6.00 Build 0)  -->
<svg version="1.1" id="Calque_1" xmlns="http://www.w3.org/2000/svg" xmlns:xlink="http://www.w3.org/1999/xlink" x="0px" y="0px"
	 viewBox="0 0 367.5 351" style="enable-background:new 0 0 367.5 351;" xml:space="preserve">
<style type="text/css">
	.st0{fill:#168DFF;}
	.st1{enable-background:new    ;}
	.st2{fill:#FFF9E0;}
</style>
<g id="Groupe_119" transform="matrix(0.996, 0.087, -0.087, 0.996, -538.712, -2607.262)">
	<g id="Groupe_70" transform="translate(-273 -2578.612)">
		<g id="Groupe_8" transform="translate(1065 5123.873)">
			<g id="Groupe_6" transform="translate(0 0)">
				<path id="Tracé_137" class="st0" d="M42.5,58.7l6.9-47.8l228.3,0l7.1,47.8h12L287.2,0L39.9,0l-9.4,58.7L42.5,58.7z"/>
				<path id="Tracé_138" class="st0" d="M307.3,209.7l5.1,34l-148.3,69.7L15.6,243.7l4.9-34l-14.6,3l-5.9,37l164.2,76.6L328,249.7
					l-6.1-37L307.3,209.7z"/>
			</g>
			<path id="Tracé_139" class="st0" d="M100.9,264.6l63,27.6l62.9-27.6"/>
		</g>
		<g class="st1">
			<path class="st0" d="M1203,5176.9c0-0.4-0.2-0.6-0.7-0.6h-2.7c-2.9,0-3.8-1.4-3.8-3.5l0-3.7c0-2.1,1.1-3.5,4.1-3.5l3.8,0
				c3,0,4.1,1.4,4.1,3.5l0,2.2h-4.9l0-1.5c0-0.4-0.2-0.6-0.7-0.6h-0.8c-0.5,0-0.7,0.2-0.7,0.6l0,2.7c0,0.4,0.2,0.6,0.7,0.6l2.6,0
				c2.9,0,3.8,1.3,3.8,3.4l0,3.7c0,2.1-1.1,3.5-4.1,3.5h-3.8c-3,0-4.1-1.4-4.1-3.5v-2.2l4.9,0l0,1.5c0,0.4,0.2,0.6,0.7,0.6h0.8
				c0.5,0,0.7-0.2,0.7-0.6V5176.9z"/>
			<path class="st0" d="M1220.7,5169.1h-3.5l0,14.5l-4.9,0l0-14.5h-3.4l0-3.5h11.8L1220.7,5169.1z"/>
			<path class="st0" d="M1230.6,5180.9h-4.3l-0.6,2.7h-4.8l4.6-18h6l4.6,18h-4.9L1230.6,5180.9z M1229.8,5177.5l-1.4-6.5l-1.4,6.5
				H1229.8z"/>
			<path class="st0" d="M1248,5169.1h-3.5l0,14.5h-4.9l0-14.5l-3.4,0l0-3.5h11.8L1248,5169.1z"/>
			<path class="st0" d="M1256.2,5176.9c0-0.4-0.2-0.6-0.7-0.6h-2.7c-2.9,0-3.8-1.4-3.8-3.5l0-3.7c0-2.1,1.1-3.5,4.1-3.5l3.8,0
				c3,0,4.1,1.4,4.1,3.5v2.2l-4.9,0l0-1.5c0-0.4-0.2-0.6-0.7-0.6h-0.8c-0.5,0-0.7,0.2-0.7,0.6l0,2.7c0,0.4,0.2,0.6,0.7,0.6h2.6
				c2.9,0,3.8,1.3,3.8,3.4l0,3.7c0,2.1-1.1,3.5-4.1,3.5h-3.8c-3,0-4.1-1.4-4.1-3.5l0-2.2l4.9,0l0,1.5c0,0.4,0.2,0.6,0.7,0.6h0.8
				c0.5,0,0.7-0.2,0.7-0.6V5176.9z"/>
		</g>
		<g class="st1">
			<path class="st2" d="M1124.9,5204c18.9,0,26,8.7,26,21.9l0,69.7c0,13.3-7.1,21.9-26,21.9l-22.1,0c-18.9,0-26-8.7-26-21.9v-11.9
				h30.1l0,7.8c0,2.7,1.4,3.9,4.4,3.9l5.1,0c3,0,4.4-1.2,4.4-3.9l0-17.7h-19.5c-18.9,0-26-8.7-26-21.9l0-26c0-13.3,7.1-21.9,26-21.9
				H1124.9z M1120.8,5253.5l0-23.5c0-2.7-1.4-3.9-4.4-3.9h-6.5c-3,0-4.4,1.2-4.4,3.9l0,19.6c0,2.7,1.4,3.9,4.4,3.9L1120.8,5253.5z"
				/>
			<path class="st2" d="M1239.6,5295.7c0,13.3-7.1,21.9-26,21.9l-23.5,0c-18.9,0-26-8.7-26-21.9l0-69.7c0-13.3,7.1-21.9,26-21.9
				l23.5,0c18.9,0,26,8.7,26,21.9L1239.6,5295.7z M1208.6,5230c0-2.7-1.4-3.9-4.4-3.9h-4.8c-3,0-4.4,1.2-4.4,3.9l0,61.6
				c0,2.7,1.4,3.9,4.4,3.9l4.8,0c3,0,4.4-1.2,4.4-3.9L1208.6,5230z"/>
			<path class="st2" d="M1310.4,5254.1c0,10.6-5.7,17.7-20.9,17.7h-18.1c-15.2,0-20.9-7.1-20.9-17.7l0-32.4
				c0-10.8,5.7-17.7,20.9-17.7l18.1,0c15.2,0,20.9,6.9,20.9,17.7L1310.4,5254.1z M1285.4,5225.2c0-2.1-1.1-3.2-3.5-3.2l-2.8,0
				c-2.5,0-3.5,1.1-3.5,3.2l0,25.3c0,2.1,1.1,3,3.5,3l2.8,0c2.5,0,3.5-0.9,3.5-3L1285.4,5225.2z M1369.1,5204l-64.2,113.6h-22.1
				l63.9-113.6H1369.1z M1400.6,5299.9c0,10.6-5.7,17.7-20.9,17.7l-18.1,0c-15.2,0-20.9-7.1-20.9-17.7l0-32.4
				c0-10.8,5.7-17.7,20.9-17.7h18.1c15.2,0,20.9,6.9,20.9,17.7L1400.6,5299.9z M1375.7,5271.1c0-2.1-1.1-3.2-3.5-3.2l-2.8,0
				c-2.5,0-3.5,1.1-3.5,3.2l0,25.3c0,2.1,1.1,3,3.5,3l2.8,0c2.5,0,3.5-0.9,3.5-3L1375.7,5271.1z"/>
		</g>
		<g class="st1">
			<path class="st2" d="M1152.5,5342.5c2.4,0,3.2,1.1,3.2,2.7l0,8.7c0,1.6-0.9,2.7-3.2,2.7h-3.3c-2.4,0-3.2-1.1-3.2-2.7l0-8.7
				c0-1.6,0.9-2.7,3.2-2.7H1152.5z M1151.8,5345.7c0-0.3-0.2-0.5-0.5-0.5l-0.9,0c-0.4,0-0.5,0.2-0.5,0.5l0,7.7
				c0,0.3,0.2,0.5,0.5,0.5l0.9,0c0.4,0,0.5-0.2,0.6-0.5L1151.8,5345.7z"/>
			<path class="st2" d="M1161.2,5345.2l0,3.4h4l0,2.5l-4,0v5.4l-3.8,0l0-14.1l8.5,0l0,2.7H1161.2z"/>
			<path class="st2" d="M1180,5345.2l-2.7,0l0,11.4l-3.8,0l0-11.4l-2.7,0v-2.7l9.3,0V5345.2z"/>
			<path class="st2" d="M1189.6,5353.9l0,2.7h-8.7l0-14.1l8.5,0l0,2.7l-4.6,0l0,2.9l4,0l0,2.7l-4,0v3H1189.6z"/>
			<path class="st2" d="M1201.4,5356.6h-4.3l-1.5-4l-1.5,4l-4.1,0l3.5-7.2l-3.4-6.9h4.4l1.2,3.6l1.2-3.6l4.1,0l-3.1,6.9
				L1201.4,5356.6z"/>
			<path class="st2" d="M1210.8,5345.2l-2.7,0l0,11.4l-3.8,0l0-11.4l-2.7,0v-2.7h9.3L1210.8,5345.2z"/>
			<path class="st2" d="M1217.2,5351.4c0-0.3-0.2-0.5-0.6-0.5h-2.1c-2.3,0-3-1.1-3-2.8v-2.9c0-1.7,0.9-2.7,3.2-2.7l3,0
				c2.4,0,3.2,1.1,3.2,2.7l0,1.7h-3.8l0-1.2c0-0.3-0.2-0.5-0.5-0.5l-0.6,0c-0.4,0-0.5,0.2-0.6,0.5l0,2.1c0,0.3,0.2,0.5,0.6,0.5h2.1
				c2.3,0,3,1,3,2.7l0,2.9c0,1.6-0.9,2.7-3.2,2.7l-3,0c-2.4,0-3.2-1.1-3.2-2.7l0-1.7h3.8l0,1.2c0,0.3,0.2,0.5,0.5,0.5h0.6
				c0.4,0,0.6-0.2,0.5-0.5L1217.2,5351.4z"/>
			<path class="st2" d="M1233.8,5354.5l-3.4,0l-0.5,2.1l-3.8,0l3.6-14.1l4.7,0l3.6,14.1l-3.9,0L1233.8,5354.5z M1233.2,5351.8
				l-1.1-5.1l-1.1,5.1H1233.2z"/>
			<path class="st2" d="M1243.1,5351.6l-0.2,0l0,5h-3.8l0-14.1h6.5c2.4,0,3.2,1.1,3.2,2.7l0,3.6c0,1.3-0.5,2.2-1.9,2.6l2.6,5.2
				l-4.1,0L1243.1,5351.6z M1242.8,5345.2l0,3.7l1.5,0c0.4,0,0.6-0.2,0.5-0.5l0-2.8c0-0.3-0.2-0.5-0.5-0.5L1242.8,5345.2z"/>
			<path class="st2" d="M1258.9,5353.9l0,2.7h-8.7l0-14.1h8.5l0,2.7l-4.6,0l0,2.9h4v2.7l-4,0l0,3L1258.9,5353.9z"/>
			<path class="st2" d="M1268.6,5351.6l-0.2,0l0,5l-3.8,0l0-14.1h6.5c2.4,0,3.2,1.1,3.2,2.7l0,3.7c0,1.3-0.5,2.2-1.9,2.6l2.6,5.2
				h-4.1L1268.6,5351.6z M1268.4,5345.2l0,3.7l1.5,0c0.4,0,0.6-0.2,0.5-0.5l0-2.8c0-0.3-0.2-0.5-0.6-0.5L1268.4,5345.2z"/>
			<path class="st2" d="M1284.5,5353.9l0,2.7h-8.7l0-14.1l8.5,0l0,2.7l-4.6,0l0,2.9l4,0l0,2.7l-4,0l0,3L1284.5,5353.9z"/>
			<path class="st2" d="M1292.5,5354.5l-3.4,0l-0.5,2.1l-3.8,0l3.6-14.1l4.7,0l3.6,14.1l-3.9,0L1292.5,5354.5z M1291.9,5351.8
				l-1.1-5.1l-1.1,5.1H1291.9z"/>
			<path class="st2" d="M1304.4,5342.5c2.4,0,3.2,1.1,3.2,2.7v8.7c0,1.6-0.9,2.7-3.2,2.7l-6.5,0l0-14.1L1304.4,5342.5z
				 M1303.8,5345.5c0-0.3-0.2-0.5-0.6-0.5l-1.5,0l0,9.1l1.5,0c0.4,0,0.6-0.2,0.5-0.5V5345.5z"/>
		</g>
		<g class="st1">
			<path class="st2" d="M1164.7,5360.5l-3,14.1l-4.4,0l-1.6-8.4l-1.6,8.4l-4.4,0l-3-14.1l4,0l1.2,9.5l1.9-9.5h3.8l1.9,9.5l1.4-9.5
				H1164.7z"/>
			<path class="st2" d="M1169.7,5360.5l0,14.1h-3.8l0-14.1L1169.7,5360.5z"/>
			<path class="st2" d="M1180,5363.2l-2.7,0v11.4l-3.8,0l0-11.4l-2.7,0v-2.7l9.3,0V5363.2z"/>
			<path class="st2" d="M1191.3,5360.5l0,14.1h-3.8l0-5.6h-2.8l0,5.6l-3.8,0l0-14.1h3.8l0,5.8l2.8,0l0-5.8H1191.3z"/>
			<path class="st2" d="M1196.9,5360.5v14.1h-3.8l0-14.1L1196.9,5360.5z"/>
			<path class="st2" d="M1208.6,5360.5l0,14.1h-3.3l-3.1-7.4l0,7.4l-3.5,0l0-14.1h3.3l3.1,7.5v-7.5H1208.6z"/>
			<path class="st2" d="M1218.3,5365.1h-3.8v-1.9c0-1.6,0.9-2.7,3.2-2.7h2.7c2.4,0,3.2,1.1,3.2,2.7l0,1.7c0,1.1-0.2,2-1.1,2.5
				c0.9,0.4,1.1,1.1,1.1,2.3l0,2.2c0,1.6-0.9,2.7-3.2,2.7h-2.7c-2.4,0-3.2-1.1-3.2-2.7v-1.9h3.8l0,1.4c0,0.3,0.2,0.5,0.5,0.5l0.4,0
				c0.4,0,0.5-0.2,0.5-0.5v-2.2c0-0.3-0.2-0.5-0.5-0.5l-1.8,0l0-2.5l1.8,0c0.4,0,0.5-0.2,0.5-0.5l0-2c0-0.3-0.2-0.5-0.5-0.5l-0.4,0
				c-0.4,0-0.5,0.2-0.5,0.5V5365.1z"/>
			<path class="st2" d="M1235.1,5369.4c0-0.3-0.2-0.5-0.5-0.5h-2.1c-2.3,0-3-1.1-3-2.8l0-2.9c0-1.6,0.9-2.7,3.2-2.7l3,0
				c2.4,0,3.2,1.1,3.2,2.7l0,1.7l-3.8,0l0-1.2c0-0.3-0.2-0.5-0.6-0.5h-0.6c-0.4,0-0.5,0.2-0.5,0.5l0,2.1c0,0.3,0.2,0.5,0.6,0.5
				l2.1,0c2.3,0,3,1,3,2.7l0,2.9c0,1.6-0.9,2.7-3.2,2.7l-3,0c-2.4,0-3.2-1.1-3.2-2.7l0-1.7l3.8,0l0,1.2c0,0.3,0.2,0.5,0.6,0.5l0.6,0
				c0.4,0,0.5-0.2,0.5-0.5L1235.1,5369.4z"/>
			<path class="st2" d="M1249.1,5371.9l0,2.7h-8.7l0-14.1l8.5,0l0,2.7l-4.6,0l0,2.9l4,0l0,2.7l-4,0l0,3H1249.1z"/>
			<path class="st2" d="M1256,5365.8l0-2.3c0-0.3-0.2-0.5-0.6-0.5l-0.8,0c-0.4,0-0.5,0.2-0.5,0.5v8.1c0,0.3,0.2,0.5,0.5,0.5l0.8,0
				c0.4,0,0.6-0.2,0.6-0.5v-2.2h3.8l0,2.5c0,1.6-0.9,2.7-3.2,2.7h-3.1c-2.4,0-3.2-1.1-3.2-2.7l0-8.7c0-1.7,0.9-2.7,3.2-2.7l3.1,0
				c2.4,0,3.2,1.1,3.2,2.7l0,2.6H1256z"/>
			<path class="st2" d="M1267.7,5360.5c2.4,0,3.2,1.1,3.2,2.7v8.7c0,1.6-0.9,2.7-3.2,2.7h-3.3c-2.4,0-3.2-1.1-3.2-2.7l0-8.7
				c0-1.7,0.9-2.7,3.2-2.7L1267.7,5360.5z M1267.1,5363.7c0-0.3-0.2-0.5-0.6-0.5h-0.9c-0.4,0-0.5,0.2-0.5,0.5l0,7.7
				c0,0.3,0.2,0.5,0.5,0.5l0.9,0c0.4,0,0.6-0.2,0.6-0.5L1267.1,5363.7z"/>
			<path class="st2" d="M1282.6,5360.5l0,14.1l-3.3,0l-3.1-7.4l0,7.4l-3.5,0l0-14.1l3.3,0l3.1,7.5v-7.5L1282.6,5360.5z"/>
			<path class="st2" d="M1291,5360.5c2.4,0,3.2,1.1,3.2,2.7v8.7c0,1.6-0.9,2.7-3.2,2.7h-6.5l0-14.1H1291z M1290.4,5363.5
				c0-0.3-0.2-0.5-0.6-0.5l-1.5,0l0,9.1l1.5,0c0.4,0,0.5-0.2,0.5-0.5L1290.4,5363.5z"/>
			<path class="st2" d="M1301.4,5369.4c0-0.3-0.2-0.5-0.6-0.5h-2.1c-2.3,0-3-1.1-3-2.8l0-2.9c0-1.6,0.9-2.7,3.2-2.7l3,0
				c2.4,0,3.2,1.1,3.2,2.7l0,1.7l-3.8,0l0-1.2c0-0.3-0.2-0.5-0.6-0.5l-0.6,0c-0.4,0-0.5,0.2-0.5,0.5l0,2.1c0,0.3,0.2,0.5,0.6,0.5
				h2.1c2.3,0,3,1,3,2.7l0,2.9c0,1.6-0.9,2.7-3.2,2.7l-3,0c-2.4,0-3.2-1.1-3.2-2.7v-1.7l3.8,0l0,1.2c0,0.3,0.2,0.5,0.6,0.5h0.6
				c0.4,0,0.5-0.2,0.5-0.5L1301.4,5369.4z"/>
			<path class="st2" d="M1306.8,5371l3.8,0l0,3.6h-3.8L1306.8,5371z"/>
		</g>
	</g>
</g>
</svg>
