<?xml version="1.0" encoding="utf-8"?>
<!-- Generator: Adobe Illustrator 25.2.1, SVG Export Plug-In . SVG Version: 6.00 Build 0)  -->
<svg version="1.1" id="Calque_1" xmlns="http://www.w3.org/2000/svg" xmlns:xlink="http://www.w3.org/1999/xlink" x="0px" y="0px"
	 viewBox="0 0 446.8 449.2" style="enable-background:new 0 0 446.8 449.2;" xml:space="preserve">
<style type="text/css">
	.st0{fill:#168DFF;}
	.st1{enable-background:new    ;}
	.st2{fill:#FFF9E0;}
</style>
<g transform="translate(4488.734 -3236.405) rotate(-9)">
	<g transform="translate(-4967.995 2547.156)">
		<g transform="translate(0 0)">
			<g>
				<path class="st0" d="M51.7,71.5l8.5-58.3l278.1,0l8.7,58.3h14.6L349.8,0L48.6,0L37.2,71.5L51.7,71.5z"/>
				<path class="st0" d="M374.4,255.4l6.2,41.4l-180.6,85L19,296.9l6-41.4l-17.8,3.7L0,304.2l200,93.3l199.6-93.3l-7.4-45.1
					L374.4,255.4z"/>
			</g>
		</g>
		<g class="st1">
			<path class="st0" d="M167.8,64c0-0.5-0.3-0.7-0.8-0.7l-3.2,0c-3.4,0-4.5-1.7-4.5-4.2l0-4.4c0-2.5,1.3-4.1,4.8-4.1l4.5,0
				c3.5,0,4.8,1.6,4.8,4.1l0,2.5l-5.8,0l0-1.8c0-0.5-0.3-0.7-0.8-0.7l-1,0c-0.6,0-0.8,0.2-0.8,0.7l0,3.1c0,0.5,0.3,0.7,0.8,0.7
				l3.1,0c3.4,0,4.5,1.6,4.5,4l0,4.4c0,2.5-1.3,4.1-4.8,4.1l-4.5,0c-3.5,0-4.9-1.6-4.9-4.1l0-2.5l5.8,0l0,1.8c0,0.5,0.3,0.7,0.8,0.7
				l1,0c0.6,0,0.8-0.2,0.8-0.7L167.8,64z"/>
			<path class="st0" d="M188.7,54.8l-4.1,0l0,17.1l-5.8,0l0-17.1l-4.1,0l0-4.1l13.9,0L188.7,54.8z"/>
			<path class="st0" d="M200.3,68.7l-5.1,0l-0.7,3.2l-5.7,0l5.4-21.2l7,0l5.4,21.2l-5.8,0L200.3,68.7z M199.4,64.6l-1.6-7.6
				l-1.7,7.6L199.4,64.6z"/>
			<path class="st0" d="M220.8,54.8l-4.1,0l0,17.1l-5.8,0l0-17.1l-4.1,0l0-4.1l13.9,0L220.8,54.8z"/>
			<path class="st0" d="M230.4,64c0-0.5-0.3-0.7-0.8-0.7l-3.2,0c-3.4,0-4.5-1.7-4.5-4.2l0-4.4c0-2.5,1.3-4.1,4.8-4.1l4.5,0
				c3.5,0,4.8,1.6,4.8,4.1l0,2.5l-5.8,0l0-1.8c0-0.5-0.3-0.7-0.8-0.7l-1,0c-0.6,0-0.8,0.2-0.8,0.7l0,3.1c0,0.5,0.3,0.7,0.8,0.7
				l3.1,0c3.4,0,4.5,1.6,4.5,4l0,4.4c0,2.5-1.3,4.1-4.8,4.1l-4.5,0c-3.5,0-4.9-1.6-4.9-4.1l0-2.5l5.8,0l0,1.8c0,0.5,0.3,0.7,0.8,0.7
				l1,0c0.6,0,0.8-0.2,0.8-0.7L230.4,64z"/>
		</g>
		<g class="st1">
			<path class="st2" d="M86.6,144c22.8,0,31.3,10.4,31.3,26.4l0,37.3c0,16-8.5,26.4-31.3,26.4l-28.5,0c-22.8,0-31.3-10.4-31.3-26.4
				l0-21.5l37.3,0l0,16.6c0,3.2,1.7,4.7,5.3,4.7l6.6,0c3.6,0,5.3-1.5,5.3-4.7l0-27.5c0-3.2-1.7-4.7-5.3-4.7l-47.5,0l0-73.3l87.3,0
				l0,26.6l-50.7,0l0,20L86.6,144z"/>
			<path class="st2" d="M223.2,207.7c0,16-8.5,26.4-31.3,26.4l-28.3,0c-22.8,0-31.3-10.4-31.3-26.4l0-83.9c0-16,8.5-26.4,31.3-26.4
				l28.3,0c22.8,0,31.3,10.4,31.3,26.4L223.2,207.7z M185.9,128.7c0-3.2-1.7-4.7-5.3-4.7l-5.8,0c-3.6,0-5.3,1.5-5.3,4.7l0,74.1
				c0,3.2,1.7,4.7,5.3,4.7l5.8,0c3.6,0,5.3-1.5,5.3-4.7L185.9,128.7z"/>
			<path class="st2" d="M308.4,157.7c0,12.8-6.8,21.3-25.1,21.3l-21.7,0c-18.3,0-25.1-8.5-25.1-21.3l0-39c0-13,6.8-21.3,25.1-21.3
				l21.7,0c18.3,0,25.1,8.3,25.1,21.3L308.4,157.7z M278.3,123c0-2.6-1.3-3.8-4.3-3.8l-3.4,0c-3,0-4.3,1.3-4.3,3.8l0,30.5
				c0,2.6,1.3,3.6,4.3,3.6l3.4,0c3,0,4.3-1.1,4.3-3.6L278.3,123z M379.1,97.4l-77.3,136.7l-26.6,0L352,97.4L379.1,97.4z M417,212.8
				c0,12.8-6.8,21.3-25.1,21.3l-21.7,0c-18.3,0-25.1-8.5-25.1-21.3l0-39c0-13,6.8-21.3,25.1-21.3l21.7,0c18.3,0,25.1,8.3,25.1,21.3
				L417,212.8z M387,178.1c0-2.6-1.3-3.8-4.3-3.8l-3.4,0c-3,0-4.3,1.3-4.3,3.8l0,30.5c0,2.6,1.3,3.6,4.3,3.6l3.4,0
				c3,0,4.3-1.1,4.3-3.6L387,178.1z"/>
		</g>
		<g class="st1">
			<path class="st2" d="M61.4,255.6c2.7,0,3.7,1.2,3.7,3.1l0,9.8c0,1.9-1,3.1-3.7,3.1l-3.7,0c-2.7,0-3.7-1.2-3.7-3.1l0-9.8
				c0-1.9,1-3.1,3.7-3.1L61.4,255.6z M60.7,259.3c0-0.4-0.2-0.5-0.6-0.5l-1.1,0c-0.4,0-0.6,0.2-0.6,0.5l0,8.7c0,0.4,0.2,0.5,0.6,0.5
				l1.1,0c0.4,0,0.6-0.2,0.6-0.5L60.7,259.3z"/>
			<path class="st2" d="M71.4,258.8l0,3.9l4.5,0l0,2.9l-4.5,0l0,6.1l-4.4,0l0-16l9.6,0l0,3.1L71.4,258.8z"/>
			<path class="st2" d="M94.1,255.6l0,12.9c0,1.9-1,3.1-3.7,3.1l-3.7,0c-2.7,0-3.7-1.2-3.7-3.1l0-12.9l4.4,0l0,12.4
				c0,0.4,0.2,0.5,0.6,0.5l1.1,0c0.4,0,0.6-0.2,0.6-0.5l0-12.4L94.1,255.6z"/>
			<path class="st2" d="M102.2,265.7c0-0.4-0.2-0.5-0.6-0.5l-2.4,0c-2.6,0-3.4-1.3-3.4-3.2l0-3.3c0-1.9,1-3.1,3.6-3.1l3.4,0
				c2.7,0,3.6,1.2,3.6,3.1l0,1.9l-4.4,0l0-1.3c0-0.4-0.2-0.5-0.6-0.5l-0.7,0c-0.4,0-0.6,0.2-0.6,0.6l0,2.4c0,0.4,0.2,0.6,0.6,0.5
				l2.4,0c2.6,0,3.4,1.2,3.4,3l0,3.3c0,1.9-1,3.1-3.6,3.1l-3.4,0c-2.7,0-3.7-1.2-3.7-3.1l0-1.9l4.4,0l0,1.3c0,0.4,0.2,0.5,0.6,0.5
				l0.7,0c0.4,0,0.6-0.2,0.6-0.5L102.2,265.7z"/>
			<path class="st2" d="M119.7,261.6l0-2.6c0-0.4-0.2-0.5-0.6-0.5l-0.9,0c-0.4,0-0.6,0.2-0.6,0.5l0,9.2c0,0.4,0.2,0.5,0.6,0.5h0.9
				c0.4,0,0.6-0.2,0.6-0.5l0-2.5l4.4,0l0,2.8c0,1.9-1,3.1-3.7,3.1l-3.5,0c-2.7,0-3.7-1.2-3.7-3.1l0-9.8c0-1.9,1-3.1,3.7-3.1l3.5,0
				c2.7,0,3.7,1.2,3.7,3.1l0,2.9L119.7,261.6z"/>
			<path class="st2" d="M133,255.6c2.7,0,3.7,1.2,3.7,3.1l0,9.8c0,1.9-1,3.1-3.7,3.1l-3.7,0c-2.7,0-3.7-1.2-3.7-3.1l0-9.8
				c0-1.9,1-3.1,3.7-3.1L133,255.6z M132.3,259.3c0-0.4-0.2-0.5-0.6-0.5l-1.1,0c-0.4,0-0.6,0.2-0.6,0.5l0,8.7c0,0.4,0.2,0.5,0.6,0.5
				l1.1,0c0.4,0,0.6-0.2,0.6-0.5L132.3,259.3z"/>
			<path class="st2" d="M149.9,255.6l0,16l-3.7,0l-3.6-8.4l0,8.4l-4,0l0-16l3.7,0l3.6,8.6l0-8.6L149.9,255.6z"/>
			<path class="st2" d="M158.1,265.7c0-0.4-0.2-0.5-0.6-0.5l-2.4,0c-2.6,0-3.4-1.3-3.4-3.1l0-3.3c0-1.9,1-3.1,3.6-3.1l3.4,0
				c2.7,0,3.6,1.2,3.6,3.1l0,1.9l-4.4,0l0-1.3c0-0.4-0.2-0.5-0.6-0.5l-0.7,0c-0.4,0-0.6,0.2-0.6,0.5l0,2.4c0,0.4,0.2,0.6,0.6,0.6
				l2.4,0c2.6,0,3.4,1.2,3.4,3l0,3.3c0,1.9-1,3.1-3.6,3.1l-3.4,0c-2.7,0-3.7-1.2-3.7-3.1l0-1.9l4.4,0l0,1.3c0,0.4,0.2,0.5,0.6,0.5
				l0.7,0c0.4,0,0.6-0.2,0.6-0.5L158.1,265.7z"/>
			<path class="st2" d="M175.3,255.6l0,12.9c0,1.9-1,3.1-3.7,3.1l-3.7,0c-2.7,0-3.7-1.2-3.7-3.1l0-12.9l4.4,0l0,12.4
				c0,0.4,0.2,0.5,0.6,0.5l1.1,0c0.4,0,0.6-0.2,0.6-0.6l0-12.4L175.3,255.6z"/>
			<path class="st2" d="M183.1,268.2l-2-6.7l0,10.1l-3.9,0l0-16l4.8,0l2.6,8.6l2.6-8.6l4.8,0l0,16l-3.9,0l0-10.2l-2,6.7L183.1,268.2
				z"/>
			<path class="st2" d="M203.9,268.6l0,3.1l-9.8,0l0-16l9.6,0l0,3.1l-5.2,0l0,3.3l4.5,0l0,3.1l-4.5,0l0,3.4L203.9,268.6z"/>
			<path class="st2" d="M209.9,266l-0.3,0l0,5.7l-4.4,0l0-16l7.4,0c2.7,0,3.7,1.2,3.7,3.1l0,4.1c0,1.5-0.6,2.5-2.1,2.9l2.9,5.9
				l-4.7,0L209.9,266z M209.6,258.8l0,4.2l1.7,0c0.4,0,0.6-0.2,0.6-0.5l0-3.1c0-0.4-0.2-0.5-0.6-0.5L209.6,258.8z"/>
			<path class="st2" d="M224.2,265.7c0-0.4-0.2-0.5-0.6-0.5l-2.4,0c-2.6,0-3.4-1.3-3.4-3.2l0-3.3c0-1.9,1-3.1,3.6-3.1l3.4,0
				c2.7,0,3.6,1.2,3.6,3.1l0,1.9l-4.4,0l0-1.3c0-0.4-0.2-0.6-0.6-0.5l-0.7,0c-0.4,0-0.6,0.2-0.6,0.5l0,2.4c0,0.4,0.2,0.6,0.6,0.6
				l2.3,0c2.6,0,3.4,1.2,3.4,3l0,3.3c0,1.9-1,3.1-3.6,3.1l-3.4,0c-2.7,0-3.7-1.2-3.7-3.1l0-1.9l4.4,0l0,1.3c0,0.4,0.2,0.5,0.6,0.5
				l0.7,0c0.4,0,0.6-0.2,0.6-0.6L224.2,265.7z"/>
			<path class="st2" d="M240,266l-0.3,0l0,5.7l-4.4,0l0-16l7.4,0c2.7,0,3.7,1.2,3.7,3.1l0,4.1c0,1.5-0.6,2.5-2.1,2.9l2.9,5.9l-4.7,0
				L240,266z M239.7,258.8l0,4.2l1.7,0c0.4,0,0.6-0.2,0.6-0.5l0-3.1c0-0.4-0.2-0.5-0.6-0.5L239.7,258.8z"/>
			<path class="st2" d="M258.1,268.6l0,3.1l-9.8,0l0-16l9.6,0l0,3.1l-5.2,0l0,3.3l4.5,0l0,3.1l-4.5,0l0,3.4L258.1,268.6z"/>
			<path class="st2" d="M265.8,261.6l0-2.6c0-0.4-0.2-0.5-0.6-0.5l-0.9,0c-0.4,0-0.6,0.2-0.6,0.5l0,9.2c0,0.4,0.2,0.5,0.6,0.5l0.9,0
				c0.4,0,0.6-0.2,0.6-0.5l0-2.5l4.4,0l0,2.8c0,1.9-1,3.1-3.7,3.1l-3.5,0c-2.7,0-3.7-1.2-3.7-3.1l0-9.8c0-1.9,1-3.1,3.7-3.1l3.5,0
				c2.7,0,3.7,1.2,3.7,3.1l0,2.9L265.8,261.6z"/>
			<path class="st2" d="M281.7,268.6l0,3.1l-9.8,0l0-16l9.6,0l0,3.1l-5.2,0l0,3.3l4.5,0l0,3.1l-4.5,0l0,3.4L281.7,268.6z"/>
			<path class="st2" d="M287.4,255.6l0,16l-4.4,0l0-16L287.4,255.6z"/>
			<path class="st2" d="M301.6,255.6l-3.9,16l-5.1,0l-3.9-16l4.5,0l1.9,10.7l2-10.7L301.6,255.6z"/>
			<path class="st2" d="M307.1,255.6l0,16l-4.4,0l0-16L307.1,255.6z"/>
			<path class="st2" d="M320.4,255.6l0,16l-3.7,0l-3.6-8.4l0,8.4l-4,0l0-16l3.7,0l3.6,8.6l0-8.6L320.4,255.6z"/>
			<path class="st2" d="M328.8,261.1l0-2.1c0-0.4-0.2-0.5-0.6-0.5l-0.9,0c-0.4,0-0.6,0.2-0.6,0.5l0,9.2c0,0.4,0.2,0.5,0.6,0.5l0.9,0
				c0.4,0,0.6-0.2,0.6-0.5l0-2.7l-1.2,0l0-2.8l5.6,0l0,5.8c0,1.9-1,3.1-3.7,3.1l-3.5,0c-2.7,0-3.7-1.2-3.7-3.1l0-9.8
				c0-1.9,1-3.1,3.7-3.1l3.5,0c2.7,0,3.7,1.2,3.7,3.1l0,2.4L328.8,261.1z"/>
		</g>
		<g class="st1">
			<path class="st2" d="M102,276.6c2.7,0,3.7,1.2,3.7,3.1l0,2c0,1.3-0.2,2.3-1.2,2.8c1,0.4,1.2,1.3,1.2,2.6l0,2.4
				c0,1.9-1,3.1-3.7,3.1l-7.3,0l0-16L102,276.6z M101.4,280.1c0-0.4-0.2-0.5-0.6-0.5l-1.8,0l0,3.7l1.8,0c0.4,0,0.6-0.2,0.6-0.5
				L101.4,280.1z M101.4,286.6c0-0.4-0.2-0.5-0.6-0.5l-1.8,0l0,3.7l1.8,0c0.4,0,0.6-0.2,0.6-0.5L101.4,286.6z"/>
			<path class="st2" d="M112.2,287l-0.3,0l0,5.7l-4.4,0l0-16l7.4,0c2.7,0,3.7,1.2,3.7,3.1l0,4.1c0,1.5-0.6,2.5-2.1,2.9l2.9,5.9
				l-4.7,0L112.2,287z M111.9,279.8l0,4.2l1.7,0c0.4,0,0.6-0.2,0.6-0.5l0-3.1c0-0.4-0.2-0.5-0.6-0.5L111.9,279.8z"/>
			<path class="st2" d="M128.1,290.3l-3.8,0l-0.5,2.4l-4.3,0l4.1-16l5.3,0l4.1,16l-4.4,0L128.1,290.3z M127.4,287.2l-1.2-5.8
				l-1.3,5.8L127.4,287.2z"/>
			<path class="st2" d="M145.3,276.6l0,16l-3.7,0l-3.6-8.4l0,8.4l-4,0l0-16l3.7,0l3.6,8.6l0-8.6L145.3,276.6z"/>
			<path class="st2" d="M154.9,276.6c2.7,0,3.7,1.2,3.7,3.1l0,9.8c0,1.9-1,3.1-3.7,3.1l-7.4,0l0-16L154.9,276.6z M154.2,280.1
				c0-0.4-0.2-0.5-0.6-0.5l-1.7,0l0,10.3l1.7,0c0.4,0,0.6-0.2,0.6-0.5L154.2,280.1z"/>
			<path class="st2" d="M170.4,289.6l0,3.1l-9.8,0l0-16l9.6,0l0,3.1l-5.2,0l0,3.3l4.5,0l0,3.1l-4.5,0l0,3.4L170.4,289.6z"/>
			<path class="st2" d="M179.4,276.6c2.7,0,3.7,1.2,3.7,3.1l0,9.8c0,1.9-1,3.1-3.7,3.1l-7.4,0l0-16L179.4,276.6z M178.7,280.1
				c0-0.4-0.2-0.5-0.6-0.5l-1.7,0l0,10.3l1.7,0c0.4,0,0.6-0.2,0.6-0.5L178.7,280.1z"/>
			<path class="st2" d="M196.1,286.7c0-0.4-0.2-0.5-0.6-0.5l-2.4,0c-2.6,0-3.4-1.3-3.4-3.2l0-3.3c0-1.9,1-3.1,3.6-3.1l3.4,0
				c2.7,0,3.6,1.2,3.6,3.1l0,1.9l-4.4,0l0-1.3c0-0.4-0.2-0.5-0.6-0.5l-0.7,0c-0.4,0-0.6,0.2-0.6,0.5l0,2.4c0,0.4,0.2,0.5,0.6,0.5
				l2.4,0c2.6,0,3.4,1.2,3.4,3l0,3.3c0,1.9-1,3.1-3.6,3.1l-3.4,0c-2.7,0-3.7-1.2-3.7-3.1l0-1.9l4.4,0l0,1.4c0,0.4,0.2,0.5,0.6,0.5
				l0.7,0c0.4,0,0.6-0.2,0.6-0.5L196.1,286.7z"/>
			<path class="st2" d="M208.1,289.2l-2-6.7l0,10.1l-3.9,0l0-16l4.8,0l2.6,8.6l2.6-8.6l4.8,0l0,16l-3.9,0l0-10.2l-2,6.7L208.1,289.2
				z"/>
			<path class="st2" d="M225.2,286.7c0-0.4-0.2-0.5-0.6-0.5l-2.4,0c-2.6,0-3.4-1.3-3.4-3.2l0-3.3c0-1.9,1-3.1,3.6-3.1l3.4,0
				c2.7,0,3.6,1.2,3.6,3.1l0,1.9l-4.4,0l0-1.4c0-0.4-0.2-0.5-0.6-0.5l-0.7,0c-0.4,0-0.6,0.2-0.6,0.5l0,2.4c0,0.4,0.2,0.6,0.6,0.6
				l2.4,0c2.6,0,3.4,1.2,3.4,3l0,3.3c0,1.9-1,3.1-3.6,3.1l-3.4,0c-2.7,0-3.7-1.2-3.7-3.1l0-1.9l4.4,0l0,1.3c0,0.4,0.2,0.5,0.6,0.5
				l0.7,0c0.4,0,0.6-0.2,0.6-0.5L225.2,286.7z"/>
			<path class="st2" d="M246,279.8l-3.1,0l0,12.9l-4.4,0l0-12.9l-3.1,0l0-3.1l10.5,0L246,279.8z"/>
			<path class="st2" d="M256.9,289.6l0,3.1l-9.8,0l0-16l9.6,0l0,3.1l-5.2,0l0,3.3l4.5,0l0,3.1l-4.5,0l0,3.4L256.9,289.6z"/>
			<path class="st2" d="M270.3,292.7l-4.9,0l-1.7-4.5l-1.7,4.5l-4.6,0l3.9-8.1l-3.8-7.9l4.9,0l1.3,4.1l1.3-4.1l4.7,0l-3.6,7.9
				L270.3,292.7z"/>
			<path class="st2" d="M281,279.8l-3.1,0l0,12.9l-4.4,0l0-12.9l-3.1,0l0-3.1l10.5,0L281,279.8z"/>
			<path class="st2" d="M288.3,286.7c0-0.4-0.2-0.5-0.6-0.5l-2.4,0c-2.6,0-3.4-1.3-3.4-3.1l0-3.3c0-1.9,1-3.1,3.6-3.1l3.4,0
				c2.7,0,3.6,1.2,3.6,3.1l0,1.9l-4.4,0l0-1.3c0-0.4-0.2-0.5-0.6-0.5l-0.7,0c-0.4,0-0.6,0.2-0.6,0.5l0,2.4c0,0.4,0.2,0.6,0.6,0.6
				l2.3,0c2.6,0,3.4,1.2,3.4,3l0,3.3c0,1.9-1,3.1-3.6,3.1l-3.4,0c-2.7,0-3.7-1.2-3.7-3.1l0-1.9l4.4,0l0,1.3c0,0.4,0.2,0.5,0.6,0.5
				l0.7,0c0.4,0,0.6-0.2,0.6-0.5L288.3,286.7z"/>
		</g>
		<g class="st1">
			<path class="st2" d="M92.4,303.1l0-2.1c0-0.4-0.2-0.5-0.6-0.5l-0.9,0c-0.4,0-0.6,0.2-0.6,0.5l0,9.2c0,0.4,0.2,0.5,0.6,0.5l0.9,0
				c0.4,0,0.6-0.2,0.6-0.5l0-2.7l-1.2,0l0-2.8l5.6,0l0,5.8c0,1.9-1,3.1-3.7,3.1l-3.5,0c-2.7,0-3.7-1.2-3.7-3.1l0-9.8
				c0-1.9,1-3.1,3.7-3.1l3.5,0c2.7,0,3.7,1.2,3.7,3.1l0,2.4L92.4,303.1z"/>
			<path class="st2" d="M105.9,297.6c2.7,0,3.7,1.2,3.7,3.1l0,9.8c0,1.9-1,3.1-3.7,3.1l-3.7,0c-2.7,0-3.7-1.2-3.7-3.1l0-9.8
				c0-1.9,1-3.1,3.7-3.1L105.9,297.6z M105.2,301.3c0-0.4-0.2-0.5-0.6-0.5l-1.1,0c-0.4,0-0.6,0.2-0.6,0.5l0,8.7
				c0,0.4,0.2,0.5,0.6,0.5l1,0c0.4,0,0.6-0.2,0.6-0.5L105.2,301.3z"/>
			<path class="st2" d="M123.8,297.6c2.7,0,3.7,1.2,3.7,3.1l0,9.8c0,1.9-1,3.1-3.7,3.1l-3.7,0c-2.7,0-3.7-1.2-3.7-3.1l0-9.8
				c0-1.9,1-3.1,3.7-3.1L123.8,297.6z M123.1,301.3c0-0.4-0.2-0.5-0.6-0.5l-1.1,0c-0.4,0-0.6,0.2-0.6,0.5l0,8.7
				c0,0.4,0.2,0.5,0.6,0.5l1.1,0c0.4,0,0.6-0.2,0.6-0.5L123.1,301.3z"/>
			<path class="st2" d="M140.7,297.6l0,16l-3.7,0l-3.6-8.4l0,8.4l-4,0l0-16l3.7,0l3.6,8.6l0-8.6L140.7,297.6z"/>
			<path class="st2" d="M157.4,300.8l-3.1,0l0,12.9l-4.4,0l0-12.9l-3.1,0l0-3.1l10.5,0L157.4,300.8z"/>
			<path class="st2" d="M165.8,297.6c2.7,0,3.7,1.2,3.7,3.1l0,9.8c0,1.9-1,3.1-3.7,3.1l-3.7,0c-2.7,0-3.7-1.2-3.7-3.1l0-9.8
				c0-1.9,1-3.1,3.7-3.1L165.8,297.6z M165.1,301.3c0-0.4-0.2-0.5-0.6-0.5l-1,0c-0.4,0-0.6,0.2-0.6,0.5l0,8.7c0,0.4,0.2,0.5,0.6,0.5
				l1,0c0.4,0,0.6-0.2,0.6-0.5L165.1,301.3z"/>
			<path class="st2" d="M182.3,310.2l-2-6.7l0,10.1l-3.9,0l0-16l4.8,0l2.6,8.6l2.6-8.6l4.8,0l0,16l-3.9,0l0-10.2l-2,6.7L182.3,310.2
				z"/>
			<path class="st2" d="M200.8,311.3l-3.8,0l-0.5,2.4l-4.3,0l4.1-16l5.3,0l4.1,16l-4.4,0L200.8,311.3z M200.1,308.2l-1.2-5.8
				l-1.3,5.8L200.1,308.2z"/>
			<path class="st2" d="M206.7,297.6l4.4,0l0,16l-4.4,0L206.7,297.6z M218.8,313.7l-4.7,0l-3-8.2l3-7.8l4.7,0l-3.1,7.8L218.8,313.7z
				"/>
			<path class="st2" d="M229.8,310.6l0,3.1l-9.8,0l0-16l9.6,0l0,3.1l-5.2,0l0,3.3l4.5,0l0,3.1l-4.5,0l0,3.4L229.8,310.6z"/>
			<path class="st2" d="M243.8,297.6c2.7,0,3.7,1.2,3.7,3.1l0,9.8c0,1.9-1,3.1-3.7,3.1l-7.4,0l0-16L243.8,297.6z M243.1,301.1
				c0-0.4-0.2-0.5-0.6-0.5l-1.7,0l0,10.3l1.7,0c0.4,0,0.6-0.2,0.6-0.5L243.1,301.1z"/>
			<path class="st2" d="M253.8,297.6l0,16l-4.4,0l0-16L253.8,297.6z"/>
			<path class="st2" d="M260.4,308h-0.3l0,5.7l-4.4,0l0-16l7.4,0c2.7,0,3.7,1.2,3.7,3.1l0,4.1c0,1.5-0.6,2.5-2.1,2.9l2.9,5.9l-4.7,0
				L260.4,308z M260.2,300.8l0,4.2l1.7,0c0.4,0,0.6-0.2,0.6-0.5l0-3.1c0-0.4-0.2-0.5-0.6-0.5L260.2,300.8z"/>
			<path class="st2" d="M278.5,310.6l0,3.1l-9.8,0l0-16l9.6,0l0,3.1l-5.2,0l0,3.3l4.5,0l0,3.1l-4.5,0l0,3.4L278.5,310.6z"/>
			<path class="st2" d="M286.2,303.6l0-2.6c0-0.4-0.2-0.5-0.6-0.5l-0.9,0c-0.4,0-0.6,0.2-0.6,0.5l0,9.2c0,0.4,0.2,0.5,0.6,0.5l0.9,0
				c0.4,0,0.6-0.2,0.6-0.5l0-2.5l4.4,0l0,2.8c0,1.9-1,3.1-3.7,3.1l-3.5,0c-2.7,0-3.7-1.2-3.7-3.1l0-9.8c0-1.9,1-3.1,3.7-3.1l3.5,0
				c2.7,0,3.7,1.2,3.7,3.1l0,2.9L286.2,303.6z"/>
			<path class="st2" d="M301.9,300.8l-3.1,0l0,12.9l-4.4,0l0-12.9l-3.1,0l0-3.1l10.5,0L301.9,300.8z"/>
		</g>
		<g class="st1">
			<path class="st2" d="M144.3,318.6c2.7,0,3.7,1.2,3.7,3.1l0,4.6c0,1.9-1,3.1-3.7,3.1l-3,0l0,5.2l-4.4,0l0-16H144.3z M143.6,322.3
				c0-0.4-0.2-0.5-0.6-0.5l-1.7,0l0,4.5l1.7,0c0.4,0,0.6-0.2,0.6-0.5L143.6,322.3z"/>
			<path class="st2" d="M160.5,318.6l0,12.9c0,1.9-1,3.1-3.7,3.1l-3.7,0c-2.7,0-3.7-1.2-3.7-3.1l0-12.9l4.4,0l0,12.4
				c0,0.4,0.2,0.5,0.6,0.5l1,0c0.4,0,0.6-0.2,0.6-0.5l0-12.4L160.5,318.6z"/>
			<path class="st2" d="M167.2,329l-0.3,0l0,5.7l-4.4,0l0-16h7.4c2.7,0,3.7,1.2,3.7,3.1l0,4.1c0,1.5-0.6,2.5-2.1,2.9l2.9,5.9l-4.7,0
				L167.2,329z M166.9,321.8l0,4.2l1.7,0c0.4,0,0.6-0.2,0.6-0.5l0-3.1c0-0.4-0.2-0.5-0.6-0.5L166.9,321.8z"/>
			<path class="st2" d="M181.8,324.6l0-2.6c0-0.4-0.2-0.5-0.6-0.5l-0.9,0c-0.4,0-0.6,0.2-0.6,0.5l0,9.2c0,0.4,0.2,0.5,0.6,0.5l0.9,0
				c0.4,0,0.6-0.2,0.6-0.6l0-2.5l4.4,0l0,2.8c0,1.9-1,3.1-3.7,3.1l-3.5,0c-2.7,0-3.7-1.2-3.7-3.1l0-9.8c0-1.9,1-3.1,3.7-3.1l3.5,0
				c2.7,0,3.7,1.2,3.7,3.1l0,2.9L181.8,324.6z"/>
			<path class="st2" d="M199.5,318.6l0,16l-4.3,0l0-6.3l-3.1,0l0,6.3l-4.3,0l0-16l4.3,0l0,6.6l3.2,0l0-6.6L199.5,318.6z"/>
			<path class="st2" d="M209.2,332.3l-3.8,0l-0.5,2.4l-4.3,0l4.1-16l5.3,0l4.1,16l-4.4,0L209.2,332.3z M208.5,329.2l-1.2-5.8
				l-1.3,5.8L208.5,329.2z"/>
			<path class="st2" d="M221.2,328.7c0-0.4-0.2-0.5-0.6-0.5l-2.4,0c-2.6,0-3.4-1.3-3.4-3.2l0-3.3c0-1.9,1-3.1,3.6-3.1l3.4,0
				c2.7,0,3.6,1.2,3.6,3.1l0,1.9l-4.4,0l0-1.3c0-0.4-0.2-0.5-0.6-0.5l-0.7,0c-0.4,0-0.6,0.2-0.6,0.5l0,2.4c0,0.4,0.2,0.6,0.6,0.6
				l2.3,0c2.6,0,3.4,1.2,3.4,3l0,3.3c0,1.9-1,3.1-3.6,3.1l-3.4,0c-2.7,0-3.7-1.2-3.7-3.1l0-1.9l4.4,0l0,1.3c0,0.4,0.2,0.5,0.6,0.5
				l0.7,0c0.4,0,0.6-0.2,0.6-0.5L221.2,328.7z"/>
			<path class="st2" d="M237.2,331.6l0,3.1l-9.8,0l0-16l9.6,0l0,3.1l-5.2,0l0,3.3l4.5,0l0,3.1l-4.5,0l0,3.4L237.2,331.6z"/>
			<path class="st2" d="M244.7,328.7c0-0.4-0.2-0.5-0.6-0.5l-2.4,0c-2.6,0-3.4-1.3-3.4-3.1l0-3.3c0-1.9,1-3.1,3.6-3.1l3.4,0
				c2.7,0,3.6,1.2,3.6,3.1l0,1.9l-4.4,0l0-1.3c0-0.4-0.2-0.5-0.6-0.5l-0.7,0c-0.4,0-0.6,0.2-0.6,0.5l0,2.4c0,0.4,0.2,0.6,0.6,0.6
				l2.4,0c2.6,0,3.4,1.2,3.4,3l0,3.3c0,1.9-1,3.1-3.6,3.1l-3.4,0c-2.7,0-3.7-1.2-3.7-3.1l0-1.9l4.4,0l0,1.3c0,0.4,0.2,0.5,0.6,0.5
				l0.7,0c0.4,0,0.6-0.2,0.6-0.5L244.7,328.7z"/>
			<path class="st2" d="M250.9,330.6l4.3,0l0,4.1l-4.3,0L250.9,330.6z"/>
		</g>
	</g>
</g>
</svg>
